<svg xmlns="http://www.w3.org/2000/svg" viewBox="0 13.75 45.900001525878906 35.04999923706055" data-asc="0.976" width="45.900001525878906" height="35.04999923706055"><defs/><g fill="#000000"><g transform="translate(0, 0)"><path d="M15.30 13.75Q16.15 13.75 18.40 13.75Q20.65 13.75 26.75 13.80Q35.60 13.90 40.75 18.57Q45.90 23.25 45.90 31.32Q45.90 39.40 40.75 44.10Q35.60 48.80 26.75 48.80L8.60 48.80L8.60 48.30L9.25 48.30Q10.50 48.30 11.43 47.42Q12.35 46.55 12.45 45.30L12.45 16.05Q6.85 16.45 4.15 18.65Q2.80 19.70 2.02 20.80Q1.25 21.90 0.50 23.45L0 23.25Q1.20 18.25 5.03 16.02Q8.85 13.80 15.30 13.75M26.15 46.70Q31.50 46.70 34.63 42.55Q37.75 38.40 37.75 31.30Q37.75 24.20 34.63 20.10Q31.50 16.00 26.25 16.00Q26.20 16.00 26.15 16.00L19.95 16.00L19.95 46.70L26.15 46.70Q26.15 46.70 26.15 46.70Z"/></g></g></svg>