<svg xmlns="http://www.w3.org/2000/svg" viewBox="0.03611111640930176 16.399999618530273 2.7138888835906982 8.450000762939453" data-asc="0.8" width="2.7138888835906982" height="8.450000762939453"><defs/><g fill="#000000"><g transform="translate(0, 0)"><path d="M0.40 24.85Q0.25 24.85 0.13 24.65Q0 24.45 0.05 24.10Q0.15 23.55 0.18 22.70Q0.20 21.85 0.20 21.05L0.20 19.30Q0.25 18.85 0.20 18.42Q0.15 18 0.15 17.65Q0.15 17.10 0.45 16.75Q0.75 16.40 1.75 16.40Q2.35 16.40 2.55 16.70Q2.75 17 2.75 17.45Q2.75 17.95 2.58 18.57Q2.40 19.20 2.30 19.60Q2.05 20.55 1.65 21.68Q1.25 22.80 0.90 24.30Q0.75 24.85 0.40 24.85Z"/></g></g></svg>