<svg xmlns="http://www.w3.org/2000/svg" viewBox="0 29.600000381469727 11.800000190734863 1.8999996185302734" data-asc="0.8" width="11.800000190734863" height="1.8999996185302734"><defs/><g fill="#000000"><g transform="translate(0, 0)"><path d="M0.90 31.50Q0 31.50 0 31Q0 30.60 0.58 30.15Q1.15 29.70 1.65 29.70Q2.20 29.70 3.55 29.67Q4.90 29.65 6.45 29.63Q8 29.60 9.00 29.60Q10.25 29.60 11.03 29.82Q11.80 30.05 11.80 30.30Q11.80 30.60 11.20 30.75Q10.60 30.90 9.95 30.98Q9.30 31.05 9.05 31.10Q7.85 31.15 6.22 31.25Q4.60 31.35 3.13 31.42Q1.65 31.50 0.90 31.50Z"/></g></g></svg>