<svg xmlns="http://www.w3.org/2000/svg" viewBox="0 24.850000381469727 25.575000762939453 15.649999618530273" data-asc="0.8" width="25.575000762939453" height="15.649999618530273"><defs/><g fill="#000000"><g transform="translate(0, 0)"><path d="M15.35 40.50Q14.50 40.50 13.78 40.10Q13.05 39.70 12.70 38.60Q12.55 38.15 12.55 37.35Q12.55 36.25 12.85 34.90Q13.15 33.55 13.50 32.60Q13.25 32.70 12.58 33.48Q11.90 34.25 10.93 35.33Q9.95 36.40 8.78 37.48Q7.60 38.55 6.35 39.25Q5.10 39.95 3.90 39.95Q3.10 39.95 2.20 39.48Q1.30 39 0.75 38.25Q0 37.25 0 36.20Q0 34.85 0.93 33.40Q1.85 31.95 3.33 30.57Q4.80 29.20 6.47 28.07Q8.15 26.95 9.68 26.17Q11.20 25.40 12.15 25.15Q13.15 24.85 14.40 24.85Q15.10 24.85 15.85 25.02Q16.60 25.20 17.10 25.60Q17.50 25.80 17.75 26.15Q18 26.50 18 26.90Q18 27.30 17.65 27.15Q17.25 26.55 16.57 26.38Q15.90 26.20 15.20 26.20Q13.20 26.20 10.80 27.50Q8.40 28.80 6.50 30.55Q5.90 31.05 4.88 32.27Q3.85 33.50 3 34.95Q2.15 36.40 2.15 37.60Q2.15 38.25 2.50 38.75Q2.70 39.10 3.15 39.10Q3.85 39.10 5.03 38.35Q6.20 37.60 7.45 36.52Q8.70 35.45 9.73 34.45Q10.75 33.45 11.20 33Q11.45 32.75 12.18 31.98Q12.90 31.20 13.75 30.30Q14.60 29.40 15.28 28.75Q15.95 28.10 16.15 28.10Q16.40 28.10 16.97 28.23Q17.55 28.35 17.95 28.60Q18.35 28.85 18.10 29.25Q16.80 31.15 16.02 33.23Q15.25 35.30 15.10 36.50Q15.05 36.70 15.05 36.88Q15.05 37.05 15.05 37.25Q15.05 39.25 16.45 39.25Q17.20 39.25 18.45 38.35Q19.70 37.45 21 36.20Q22.30 34.95 23.38 33.77Q24.45 32.60 24.85 32Q25 31.85 25.15 31.85Q25.35 31.85 25.50 32.02Q25.65 32.20 25.50 32.45Q24.95 33.35 23.90 34.60Q22.85 35.85 21.55 37.10Q20.25 38.35 19 39.25Q18.35 39.75 17.35 40.13Q16.35 40.50 15.35 40.50Z"/></g></g></svg>