<svg xmlns="http://www.w3.org/2000/svg" viewBox="0 24.850000381469727 27.549999237060547 33.60000228881836" data-asc="0.8" width="27.549999237060547" height="33.60000228881836"><defs/><g fill="#000000"><g transform="translate(0, 0)"><path d="M2.80 58.35Q2.20 58.20 1.75 58.05Q0.80 57.55 0.40 56.92Q0 56.30 0 55.60Q0 54.45 0.78 53.13Q1.55 51.80 2.80 50.40Q4.05 48.90 5.98 47.35Q7.90 45.80 10 44.38Q12.10 42.95 13.70 41.90Q15.45 38.35 16.80 35.17Q18.15 32 18.70 30.30Q17.65 31.45 16.45 32.88Q15.25 34.30 14.70 34.95Q13.75 35.95 12.55 37.13Q11.35 38.30 10.03 39.13Q8.70 39.95 7.45 39.95Q6.65 39.95 5.75 39.48Q4.85 39 4.30 38.25Q3.55 37.25 3.55 36.20Q3.55 34.85 4.48 33.40Q5.40 31.95 6.88 30.57Q8.35 29.20 10.03 28.07Q11.70 26.95 13.23 26.17Q14.75 25.40 15.70 25.15Q16.60 24.85 17.90 24.85Q18.50 24.85 19.35 25.05Q20.20 25.25 20.88 25.67Q21.55 26.10 21.55 26.90Q21.55 27.30 21.15 27.15Q20.80 26.55 20.13 26.38Q19.45 26.20 18.75 26.20Q16.80 26.20 14.38 27.50Q11.95 28.80 10.05 30.55Q9.45 31.05 8.40 32.27Q7.35 33.50 6.53 34.95Q5.70 36.40 5.70 37.60Q5.70 38.25 6.05 38.75Q6.20 39 6.65 39Q7.60 39 8.98 38.15Q10.35 37.30 11.90 36Q13.45 34.70 14.93 33.23Q16.40 31.75 17.55 30.50Q18.70 29.25 19.25 28.60Q19.35 28.35 19.60 28.25Q19.85 28.15 20.15 28.15Q20.95 28.15 21.83 28.57Q22.70 29 22.55 29.30Q21.60 31.35 20.33 34.05Q19.05 36.75 17.65 39.70Q18.30 39.35 19.80 38.15Q21.30 36.95 23.10 35.27Q24.90 33.60 26.45 31.80Q27.05 31.15 27.35 31.15Q27.65 31.15 27.50 31.67Q27.35 32.20 26.70 33Q25.90 33.95 24.50 35.27Q23.10 36.60 21.55 37.98Q20 39.35 18.68 40.42Q17.35 41.50 16.60 41.90Q15.05 45.20 13.60 48.13Q12.15 51.05 10.95 52.85Q10.15 54.10 9 55.40Q7.85 56.70 6.50 57.58Q5.15 58.45 3.65 58.45Q3.45 58.45 3.25 58.42Q3.05 58.40 2.80 58.35M2.30 57.05Q2.60 57.25 3.18 57.05Q3.75 56.85 4.65 56.15Q6.60 54.60 8 52.52Q9.40 50.45 10.55 48.17Q11.70 45.90 12.75 43.80Q10.80 45.25 8.35 47.23Q5.90 49.20 3.90 51.15Q2.90 52.15 2.23 53.38Q1.55 54.60 1.55 55.60Q1.55 56.65 2.30 57.05Z"/></g></g></svg>