<svg xmlns="http://www.w3.org/2000/svg" viewBox="0.1090908944606781 25.149999618530273 31.586362838745117 15.500001907348633" data-asc="0.8" width="31.586362838745117" height="15.500001907348633"><defs/><g fill="#000000"><g transform="translate(0, 0)"><path d="M0.40 40.65Q0 40.65 0.15 40.30Q0.35 39.95 0.88 38.52Q1.40 37.10 2.08 35.15Q2.75 33.20 3.40 31.40Q2.90 32.15 2.33 32.85Q1.75 33.55 1.35 34Q1.20 34.15 1.15 34.15Q1 34.15 1 33.85Q1 33.25 1.30 32.75Q2.35 31.40 2.90 30.63Q3.45 29.85 3.83 29.23Q4.20 28.60 4.60 27.80Q4.70 27.25 4.98 26.45Q5.25 25.65 6.30 25.65Q7.85 25.65 7.85 26.30Q7.85 26.50 7.75 26.73Q7.65 26.95 7.55 27.20Q6.95 28.55 6.25 30.30Q5.55 32.05 4.98 33.60Q4.40 35.15 4.10 36Q4.65 35.30 5.75 34.02Q6.85 32.75 8.28 31.23Q9.70 29.70 11.23 28.32Q12.75 26.95 14.10 26.05Q15.45 25.15 16.40 25.15Q17.55 25.15 17.55 26.45Q17.55 27.45 16.75 29.05Q16.40 29.80 15.80 31.07Q15.20 32.35 14.85 33Q15.75 32.20 16.90 31.23Q18.05 30.25 19.33 29.40Q20.60 28.55 21.70 28.15Q21.95 28.05 22.70 27.82Q23.45 27.60 24 27.60Q24.75 27.60 24.75 28.10Q24.75 28.45 24.40 28.85Q23.55 30.15 22.88 31.63Q22.20 33.10 21.80 34.40Q21.40 35.70 21.30 36.50Q21.25 36.70 21.25 36.88Q21.25 37.05 21.25 37.25Q21.25 39.25 22.55 39.25Q23.35 39.25 24.60 38.38Q25.85 37.50 27.15 36.23Q28.45 34.95 29.53 33.77Q30.60 32.60 31 32Q31.15 31.85 31.30 31.85Q31.50 31.85 31.63 32Q31.75 32.15 31.65 32.40Q31.20 33.25 30.13 34.52Q29.05 35.80 27.73 37.08Q26.40 38.35 25.15 39.25Q24.50 39.75 23.53 40.13Q22.55 40.50 21.55 40.50Q20.65 40.50 19.93 40.10Q19.20 39.70 18.85 38.60Q18.70 38.15 18.70 37.45Q18.70 36.35 19 34.95Q19.30 33.55 19.65 32.60Q19.90 31.90 20.33 31.02Q20.75 30.15 21.10 29.55Q19.55 30.15 18.10 31.35Q16.65 32.55 15.48 33.77Q14.30 35 13.50 35.80Q13.30 36.35 12.73 36.70Q12.15 37.05 11.65 37.05Q10.90 37.05 10.90 36.40Q10.90 36.15 11.05 35.80Q11.55 34.60 12.18 33.33Q12.80 32.05 13.33 31Q13.85 29.95 14.05 29.55Q14.45 28.85 14.45 28.45Q14.45 28.05 14.10 28.05Q13.75 28.05 12.95 28.50Q12.15 28.95 10.85 30.10Q9.80 31.05 8.55 32.58Q7.30 34.10 6.15 35.70Q5 37.30 4.13 38.45Q3.25 39.60 2.90 39.80Q2.60 39.95 1.73 40.30Q0.85 40.65 0.40 40.65Z"/></g></g></svg>