<svg xmlns="http://www.w3.org/2000/svg" viewBox="0 24.850000381469727 19.399999618530273 15.69999885559082" data-asc="0.8" width="19.399999618530273" height="15.69999885559082"><defs/><g fill="#000000"><g transform="translate(0, 0)"><path d="M4.20 40.55Q2.80 40.55 1.75 39.90Q0 38.85 0 36.10Q0 34.95 0.40 33.45Q0.75 32.20 1.65 30.73Q2.55 29.25 3.78 27.90Q5 26.55 6.45 25.70Q7.90 24.85 9.35 24.85Q9.95 24.85 10.40 25Q11 25.20 11.43 25.73Q11.85 26.25 11.85 27.05Q11.85 27.90 11.43 28Q11 28.10 11 27.80Q11 27.70 11.03 27.60Q11.05 27.50 11.05 27.45Q11.05 27.05 10.82 26.73Q10.60 26.40 10 26.40Q9.20 26.40 8.03 27.25Q6.85 28.10 5.63 29.52Q4.40 30.95 3.48 32.65Q2.55 34.35 2.25 36.05Q2.20 36.30 2.17 36.52Q2.15 36.75 2.15 37Q2.15 38.15 2.67 38.92Q3.20 39.70 4.35 39.70Q5.75 39.70 7.05 38.63Q8.35 37.55 9.38 36.05Q10.40 34.55 10.90 33.40Q11.30 32.50 11.45 31.85Q11.60 31.20 11.60 30.75Q11.60 30.35 11.53 30.05Q11.45 29.75 11.35 29.55Q11.25 29.25 11.25 29.10Q11.25 28.70 11.57 28.45Q11.90 28.20 12.25 28.20Q12.55 28.20 12.90 28.40Q13.30 28.50 14 28.55Q14.70 28.60 15.50 28.60Q16.35 28.60 17.23 28.55Q18.10 28.50 18.75 28.35Q18.85 28.30 19.05 28.30Q19.40 28.30 19.40 28.50Q19.40 28.70 19.05 28.85Q17.30 29.65 15.93 29.70Q14.55 29.75 13.55 29.75Q13.65 31 13 32.42Q12.35 33.85 11.65 34.95Q10.80 36.20 9.70 37.50Q8.60 38.80 7.25 39.67Q5.90 40.55 4.20 40.55Z"/></g></g></svg>