<svg xmlns="http://www.w3.org/2000/svg" viewBox="0 20.450000762939453 17.674999237060547 20.14999771118164" data-asc="0.8" width="17.674999237060547" height="20.14999771118164"><defs/><g fill="#000000"><g transform="translate(0, 0)"><path d="M7.20 40.60Q6.35 40.60 5.70 40.23Q5.05 39.85 4.80 38.80Q4.65 38.25 4.65 37.70Q4.65 36.20 5.42 34.77Q6.20 33.35 7.25 32.13Q8.30 30.90 9.05 30.05Q9.45 29.65 9.97 29Q10.50 28.35 10.50 27.70Q10.50 27.30 10.10 26.92Q9.70 26.55 8.65 26.40Q8.05 26.30 7.53 26.23Q7 26.15 6.45 26.15Q5.05 28.05 3.72 29.98Q2.40 31.90 0.90 33.75Q0.55 34.10 0.30 34.10Q0 34.10 0 33.80Q0 33.50 0.30 33.20Q3 29.90 4.95 26.15Q4.70 26.15 4.20 26.13Q3.70 26.10 3.40 26.05Q3.05 25.95 2.85 25.75Q2.65 25.55 2.65 25.35Q2.65 25.05 2.90 25Q3.55 24.80 4.30 24.40Q5.05 24 5.70 23.35Q6.40 22.65 7 21.88Q7.60 21.10 7.95 20.70Q8.30 20.45 8.70 20.45Q8.95 20.45 9.18 20.60Q9.40 20.75 9.40 21.05Q9.40 21.40 9.10 21.95Q8.65 22.65 8.13 23.50Q7.60 24.35 7.15 25.05Q8.05 25.10 8.95 25.15Q9.85 25.20 10.80 25.20Q11.30 25.20 11.78 25.17Q12.25 25.15 12.75 25.15Q14.25 25.15 14.25 25.90Q14.25 26.40 13.72 27.13Q13.20 27.85 12.45 28.70Q10.75 30.65 9.55 32.80Q8.35 34.95 7.95 36.10Q7.55 37.30 7.55 37.90Q7.55 39.10 8.50 39.10Q9.35 39.10 10.58 38.25Q11.80 37.40 13.10 36.17Q14.40 34.95 15.45 33.77Q16.50 32.60 16.95 32Q17.05 31.85 17.25 31.85Q17.45 31.85 17.60 32.02Q17.75 32.20 17.60 32.45Q17.05 33.30 16.00 34.58Q14.95 35.85 13.65 37.10Q12.35 38.35 11.10 39.25Q10.45 39.75 9.33 40.17Q8.20 40.60 7.20 40.60Z"/></g></g></svg>