<svg xmlns="http://www.w3.org/2000/svg" viewBox="0 17.633333206176758 14.949999809265137 22.866666793823242" data-asc="0.8" width="14.949999809265137" height="22.866666793823242"><defs/><g fill="#000000"><g transform="translate(0, 0)"><path d="M3.90 40.50Q3 40.50 2.28 40.10Q1.55 39.70 1.20 38.60Q1.15 38.45 1.13 38.30Q1.10 38.15 1.10 37.95Q1.10 36.95 1.55 35.45Q2 33.95 2.65 32.55Q2.35 32.95 1.95 33.52Q1.55 34.10 0.80 35Q0.60 35.20 0.35 35.20Q0 35.20 0 34.80Q0 34.50 0.20 34.30Q1.50 32.65 2.53 31.35Q3.55 30.05 4.05 29.15Q4.05 29.05 4.35 28.52Q4.65 28 5.15 27.05Q4.75 27.10 4.48 27.13Q4.20 27.15 4 27.15Q3.65 27.15 3.40 26.85Q3.15 26.55 3.35 26.10Q3.60 25.40 4.45 25.30Q5.30 25.20 5.95 25.15Q6.00 25.05 6.15 25.05Q6.75 23.95 7.30 22.90Q7.85 21.85 8.22 21.15Q8.60 20.45 8.60 20.40Q9.60 18.80 9.90 18.27Q10.20 17.75 10.70 17.65Q11.25 17.60 11.88 17.70Q12.50 17.80 12.70 18.15Q12.85 18.35 12.85 18.65Q12.85 19.10 12.65 19.52Q12.45 19.95 12.25 20.20Q12.05 20.55 11.72 20.67Q11.40 20.80 11.15 21.30Q10.65 22.25 10.05 23.35Q9.45 24.45 8.80 25.45L9.40 25.40Q10.60 25.30 11.68 25.15Q12.75 25 14.15 25.05Q14.40 25.05 14.68 25.13Q14.95 25.20 14.95 25.35Q14.95 25.55 13.65 25.90Q13.15 26.10 11.47 26.32Q9.80 26.55 8.05 26.75Q7.55 27.70 7.15 28.32Q6.75 28.95 6.60 29.25Q5.50 31.55 4.63 33.42Q3.75 35.30 3.65 36.50Q3.60 36.70 3.60 36.88Q3.60 37.05 3.60 37.25Q3.60 39.25 4.90 39.25Q5.70 39.25 6.95 38.38Q8.20 37.50 9.50 36.23Q10.80 34.95 11.88 33.77Q12.95 32.60 13.35 32Q13.50 31.85 13.65 31.85Q13.85 31.85 13.97 32Q14.10 32.15 14 32.40Q13.55 33.25 12.47 34.52Q11.40 35.80 10.07 37.08Q8.75 38.35 7.50 39.25Q6.85 39.75 5.88 40.13Q4.90 40.50 3.90 40.50Z"/></g></g></svg>