<svg xmlns="http://www.w3.org/2000/svg" viewBox="0 9.949999809265137 265.75 48.5" data-asc="0.8" width="265.75" height="48.5"><defs/><g fill="#000000"><g transform="translate(0, 0)"><path d="M2.20 40.45Q1.15 40.45 0.58 40.27Q0 40.10 0 39.45Q0 39.20 0.05 38.92Q0.10 38.65 0.25 38.30Q0.50 37.75 1.10 37.48Q1.70 37.20 2.20 37.20Q2.70 37.20 3.10 37.45Q3.80 37.95 4.75 38.33Q5.70 38.70 6.75 38.70Q7.95 38.70 9.20 38.13Q10.45 37.55 11.55 36Q13.05 34.05 14.35 31.13Q15.65 28.20 16.73 24.95Q17.80 21.70 18.65 18.63Q19.50 15.55 20.05 13.30Q17.45 13.50 15 14.17Q12.55 14.85 10.97 16.07Q9.40 17.30 9.40 19.10Q9.40 20.10 9.95 20.72Q10.50 21.35 11.22 21.70Q11.95 22.05 12.40 22.30Q12.75 22.50 12.75 22.65Q12.75 22.95 12.30 22.75Q11.70 22.60 10.78 22.07Q9.85 21.55 9.13 20.65Q8.40 19.75 8.35 18.60Q8.35 18.50 8.28 18.30Q8.20 18.10 8.20 17.95Q8.10 16.05 9.18 14.75Q10.25 13.45 12.08 12.63Q13.90 11.80 16.13 11.42Q18.35 11.05 20.60 11.05L20.80 10.55Q20.90 10.30 21.38 10.13Q21.85 9.95 22.35 9.95Q22.85 9.95 23.18 10.10Q23.50 10.25 23.50 10.50Q23.50 10.75 23.25 11.15Q24.90 11.30 26.28 11.65Q27.65 12 28.60 12.50Q28.95 12.65 29.43 13.13Q29.90 13.60 29.90 13.90Q29.90 14.15 29.50 14.15Q29.30 14.15 29.00 14.10Q28.70 14.05 28.30 13.90Q27.35 13.55 25.83 13.40Q24.30 13.25 22.55 13.25Q21.80 15.55 20.78 18.70Q19.75 21.85 18.48 25.23Q17.20 28.60 15.70 31.67Q14.20 34.75 12.55 36.85Q12.05 37.35 11.58 37.85Q11.10 38.35 10.65 38.75Q13.40 38.80 15.67 38.70Q17.95 38.60 19.50 38.55L19.80 38.55Q20.35 38.55 20.35 38.80Q20.35 39.05 20.05 39.35Q19.75 39.65 19.55 39.75Q19.30 39.85 17.83 39.98Q16.35 40.10 14.18 40.17Q12 40.25 9.65 40.33Q7.30 40.40 5.30 40.42Q3.30 40.45 2.20 40.45ZM25.35 24.85Q25.20 24.85 25.08 24.65Q24.95 24.45 25 24.10Q25.10 23.55 25.13 22.70Q25.15 21.85 25.15 21.05L25.15 19.30Q25.20 18.85 25.15 18.42Q25.10 18 25.10 17.65Q25.10 17.10 25.40 16.75Q25.70 16.40 26.70 16.40Q27.30 16.40 27.50 16.70Q27.70 17 27.70 17.45Q27.70 17.95 27.53 18.57Q27.35 19.20 27.25 19.60Q27 20.55 26.60 21.68Q26.20 22.80 25.85 24.30Q25.70 24.85 25.35 24.85ZM44.30 40.50Q43.45 40.50 42.73 40.10Q42 39.70 41.65 38.60Q41.50 38.15 41.50 37.35Q41.50 36.25 41.80 34.90Q42.10 33.55 42.45 32.60Q42.20 32.70 41.53 33.48Q40.85 34.25 39.88 35.33Q38.90 36.40 37.73 37.48Q36.55 38.55 35.30 39.25Q34.05 39.95 32.85 39.95Q32.05 39.95 31.15 39.48Q30.25 39 29.70 38.25Q28.95 37.25 28.95 36.20Q28.95 34.85 29.88 33.40Q30.80 31.95 32.27 30.57Q33.75 29.20 35.43 28.07Q37.10 26.95 38.63 26.17Q40.15 25.40 41.10 25.15Q42.10 24.85 43.35 24.85Q44.05 24.85 44.80 25.02Q45.55 25.20 46.05 25.60Q46.45 25.80 46.70 26.15Q46.95 26.50 46.95 26.90Q46.95 27.30 46.60 27.15Q46.20 26.55 45.53 26.38Q44.85 26.20 44.15 26.20Q42.15 26.20 39.75 27.50Q37.35 28.80 35.45 30.55Q34.85 31.05 33.83 32.27Q32.80 33.50 31.95 34.95Q31.10 36.40 31.10 37.60Q31.10 38.25 31.45 38.75Q31.65 39.10 32.10 39.10Q32.80 39.10 33.98 38.35Q35.15 37.60 36.40 36.52Q37.65 35.45 38.68 34.45Q39.70 33.45 40.15 33Q40.40 32.75 41.13 31.98Q41.85 31.20 42.70 30.30Q43.55 29.40 44.23 28.75Q44.90 28.10 45.10 28.10Q45.35 28.10 45.92 28.23Q46.50 28.35 46.90 28.60Q47.30 28.85 47.05 29.25Q45.75 31.15 44.98 33.23Q44.20 35.30 44.05 36.50Q44 36.70 44 36.88Q44 37.05 44 37.25Q44 39.25 45.40 39.25Q46.15 39.25 47.40 38.35Q48.65 37.45 49.95 36.20Q51.25 34.95 52.33 33.77Q53.40 32.60 53.80 32Q53.95 31.85 54.10 31.85Q54.30 31.85 54.45 32.02Q54.60 32.20 54.45 32.45Q53.90 33.35 52.85 34.60Q51.80 35.85 50.50 37.10Q49.20 38.35 47.95 39.25Q47.30 39.75 46.30 40.13Q45.30 40.50 44.30 40.50ZM52.15 40.65Q51.75 40.65 51.90 40.30Q52.10 39.95 52.63 38.52Q53.15 37.10 53.83 35.15Q54.50 33.20 55.15 31.40Q54.65 32.15 54.08 32.85Q53.50 33.55 53.10 34Q52.95 34.15 52.90 34.15Q52.75 34.15 52.75 33.85Q52.75 33.25 53.05 32.75Q54.10 31.40 54.65 30.63Q55.20 29.85 55.58 29.23Q55.95 28.60 56.35 27.80Q56.45 27.25 56.73 26.45Q57 25.65 58.05 25.65Q59.60 25.65 59.60 26.30Q59.60 26.50 59.50 26.73Q59.40 26.95 59.30 27.20Q58.70 28.55 58 30.30Q57.30 32.05 56.73 33.60Q56.15 35.15 55.85 36Q56.40 35.30 57.50 34.02Q58.60 32.75 60.02 31.23Q61.45 29.70 62.98 28.32Q64.50 26.95 65.85 26.05Q67.20 25.15 68.15 25.15Q69.30 25.15 69.30 26.45Q69.30 27.45 68.50 29.05Q68.15 29.80 67.55 31.07Q66.95 32.35 66.60 33Q67.50 32.20 68.65 31.23Q69.80 30.25 71.08 29.40Q72.35 28.55 73.45 28.15Q73.70 28.05 74.45 27.82Q75.20 27.60 75.75 27.60Q76.50 27.60 76.50 28.10Q76.50 28.45 76.15 28.85Q75.30 30.15 74.63 31.63Q73.95 33.10 73.55 34.40Q73.15 35.70 73.05 36.50Q73 36.70 73 36.88Q73 37.05 73 37.25Q73 39.25 74.30 39.25Q75.10 39.25 76.35 38.38Q77.60 37.50 78.90 36.23Q80.20 34.95 81.28 33.77Q82.35 32.60 82.75 32Q82.90 31.85 83.05 31.85Q83.25 31.85 83.38 32Q83.50 32.15 83.40 32.40Q82.95 33.25 81.88 34.52Q80.80 35.80 79.47 37.08Q78.15 38.35 76.90 39.25Q76.25 39.75 75.28 40.13Q74.30 40.50 73.30 40.50Q72.40 40.50 71.67 40.10Q70.95 39.70 70.60 38.60Q70.45 38.15 70.45 37.45Q70.45 36.35 70.75 34.95Q71.05 33.55 71.40 32.60Q71.65 31.90 72.08 31.02Q72.50 30.15 72.85 29.55Q71.30 30.15 69.85 31.35Q68.40 32.55 67.22 33.77Q66.05 35 65.25 35.80Q65.05 36.35 64.47 36.70Q63.90 37.05 63.40 37.05Q62.65 37.05 62.65 36.40Q62.65 36.15 62.80 35.80Q63.30 34.60 63.92 33.33Q64.55 32.05 65.08 31Q65.60 29.95 65.80 29.55Q66.20 28.85 66.20 28.45Q66.20 28.05 65.85 28.05Q65.50 28.05 64.70 28.50Q63.90 28.95 62.60 30.10Q61.55 31.05 60.30 32.58Q59.05 34.10 57.90 35.70Q56.75 37.30 55.88 38.45Q55 39.60 54.65 39.80Q54.35 39.95 53.48 40.30Q52.60 40.65 52.15 40.65ZM91.00 58.35Q90.40 58.20 89.95 58.05Q89.00 57.55 88.60 56.92Q88.20 56.30 88.20 55.60Q88.20 54.45 88.98 53.13Q89.75 51.80 91.00 50.40Q92.25 48.90 94.18 47.35Q96.10 45.80 98.20 44.38Q100.30 42.95 101.90 41.90Q102.75 40.15 103.68 38.15Q104.60 36.15 105.45 34.27Q106.30 32.40 106.93 30.85Q107.55 29.30 107.85 28.45Q107.05 29.40 106.00 30.82Q104.95 32.25 103.70 33.83Q102.45 35.40 101.13 36.80Q99.80 38.20 98.40 39.08Q97.00 39.95 95.65 39.95Q93.65 39.95 92.88 38.92Q92.10 37.90 92.10 36.50Q92.10 35.50 92.38 34.50Q92.65 33.50 93.10 32.65Q93.40 32.05 94.05 31.05Q94.70 30.05 95.55 29Q96.40 27.95 97.28 27.25Q98.15 26.55 98.95 26.55Q99.90 26.55 100.40 27.23Q100.90 27.90 100.50 28.15Q99.70 28.70 98.53 29.82Q97.35 30.95 96.20 32.40Q95.90 32.80 95.48 33.65Q95.05 34.50 94.70 35.48Q94.35 36.45 94.35 37.25Q94.35 37.60 94.45 37.92Q94.55 38.25 94.80 38.40Q95.20 38.70 95.70 38.70Q96.40 38.70 97.28 38.25Q98.15 37.80 98.95 37.10Q101.75 34.40 103.95 31.45Q106.15 28.50 108.60 25.60Q108.75 25.10 109.45 25.10Q110.25 25.10 111.13 25.57Q112.00 26.05 111.85 26.35Q111.40 27.35 110.68 29Q109.95 30.65 109.10 32.55Q108.25 34.45 107.40 36.33Q106.55 38.20 105.85 39.70Q106.45 39.40 108.00 38.20Q109.55 37 111.40 35.27Q113.25 33.55 114.75 31.70Q115.05 31.40 115.20 31.40Q115.50 31.40 115.50 31.80Q115.50 32.15 115.20 32.60Q114.45 33.60 113.13 34.95Q111.80 36.30 110.28 37.67Q108.75 39.05 107.30 40.17Q105.85 41.30 104.80 41.90Q103.25 45.20 101.80 48.13Q100.35 51.05 99.15 52.85Q98.35 54.10 97.20 55.40Q96.05 56.70 94.70 57.58Q93.35 58.45 91.85 58.45Q91.65 58.45 91.45 58.42Q91.25 58.40 91.00 58.35M91.15 57.25Q91.55 57.25 92.13 57Q92.70 56.75 93.35 56.20Q95.25 54.65 96.55 52.58Q97.85 50.50 98.88 48.20Q99.90 45.90 100.95 43.80Q99.00 45.25 96.55 47.23Q94.10 49.20 92.10 51.15Q90.90 52.35 90.35 53.52Q89.80 54.70 89.80 55.60Q89.80 57.25 91.15 57.25ZM117.75 40.55Q116.35 40.55 115.30 39.90Q113.55 38.85 113.55 36.10Q113.55 34.95 113.95 33.45Q114.30 32.20 115.20 30.73Q116.10 29.25 117.33 27.90Q118.55 26.55 120.00 25.70Q121.45 24.85 122.90 24.85Q123.50 24.85 123.95 25Q124.55 25.20 124.98 25.73Q125.40 26.25 125.40 27.05Q125.40 27.90 124.98 28Q124.55 28.10 124.55 27.80Q124.55 27.70 124.58 27.60Q124.60 27.50 124.60 27.45Q124.60 27.05 124.38 26.73Q124.15 26.40 123.55 26.40Q122.75 26.40 121.58 27.25Q120.40 28.10 119.18 29.52Q117.95 30.95 117.03 32.65Q116.10 34.35 115.80 36.05Q115.75 36.30 115.73 36.52Q115.70 36.75 115.70 37Q115.70 38.15 116.23 38.92Q116.75 39.70 117.90 39.70Q119.30 39.70 120.60 38.63Q121.90 37.55 122.93 36.05Q123.95 34.55 124.45 33.40Q124.85 32.50 125.00 31.85Q125.15 31.20 125.15 30.75Q125.15 30.35 125.08 30.05Q125.00 29.75 124.90 29.55Q124.80 29.25 124.80 29.10Q124.80 28.70 125.13 28.45Q125.45 28.20 125.80 28.20Q126.10 28.20 126.45 28.40Q126.85 28.50 127.55 28.55Q128.25 28.60 129.05 28.60Q129.90 28.60 130.78 28.55Q131.65 28.50 132.30 28.35Q132.40 28.30 132.60 28.30Q132.95 28.30 132.95 28.50Q132.95 28.70 132.60 28.85Q130.85 29.65 129.48 29.70Q128.10 29.75 127.10 29.75Q127.20 31 126.55 32.42Q125.90 33.85 125.20 34.95Q124.35 36.20 123.25 37.50Q122.15 38.80 120.80 39.67Q119.45 40.55 117.75 40.55ZM142.95 40.50Q142.05 40.50 141.35 40.10Q140.65 39.70 140.30 38.60Q140.25 38.35 140.18 38.02Q140.10 37.70 140.10 37.35Q140.10 36.15 140.43 34.65Q140.75 33.15 141.15 32.15Q140.95 32.30 140.45 33.15Q139.95 34 139.20 35.13Q138.45 36.25 137.53 37.38Q136.60 38.50 135.53 39.23Q134.45 39.95 133.25 39.95Q132.45 39.95 131.33 39.50Q130.20 39.05 129.70 38.25Q129.20 37.45 129.20 36.25Q129.20 34.80 129.85 33.08Q130.50 31.35 131.50 29.85Q131.85 29.35 132.30 28.65Q132.75 27.95 133.20 27.42Q133.65 26.90 133.85 26.85Q134.45 26.65 135.25 26.65Q136.10 26.65 136.50 26.85Q136.85 27 136.85 27.20Q136.85 27.45 136.45 27.85Q135.90 28.35 134.95 29.35Q134.00 30.35 133.08 31.75Q132.15 33.15 131.55 34.85Q131.05 36.20 131.05 37.20Q131.05 38.95 132.45 38.95Q133.65 38.95 135.00 37.95Q136.35 36.95 137.63 35.50Q138.90 34.05 139.93 32.63Q140.95 31.20 141.50 30.35Q142.00 29.65 142.63 28.55Q143.25 27.45 143.85 26.40Q144.45 25.35 144.80 24.85Q145.15 24.85 145.88 24.98Q146.60 25.10 147.13 25.40Q147.65 25.70 147.40 26.15Q147.10 26.65 146.48 27.70Q145.85 28.75 145.23 29.82Q144.60 30.90 144.25 31.55Q143.05 33.85 142.70 36.50Q142.65 36.70 142.65 36.88Q142.65 37.05 142.65 37.25Q142.65 39.25 144.00 39.25Q144.75 39.25 146.00 38.35Q147.25 37.45 148.58 36.20Q149.90 34.95 150.98 33.77Q152.05 32.60 152.45 32Q152.55 31.85 152.75 31.85Q152.95 31.85 153.08 32Q153.20 32.15 153.05 32.40Q152.60 33.25 151.53 34.52Q150.45 35.80 149.15 37.08Q147.85 38.35 146.60 39.25Q145.95 39.75 144.95 40.13Q143.95 40.50 142.95 40.50ZM158.40 40.60Q157.55 40.60 156.90 40.23Q156.25 39.85 156 38.80Q155.85 38.25 155.85 37.70Q155.85 36.20 156.63 34.77Q157.40 33.35 158.45 32.13Q159.50 30.90 160.25 30.05Q160.65 29.65 161.18 29Q161.70 28.35 161.70 27.70Q161.70 27.30 161.30 26.92Q160.90 26.55 159.85 26.40Q159.25 26.30 158.73 26.23Q158.20 26.15 157.65 26.15Q156.25 28.05 154.93 29.98Q153.60 31.90 152.10 33.75Q151.75 34.10 151.50 34.10Q151.20 34.10 151.20 33.80Q151.20 33.50 151.50 33.20Q154.20 29.90 156.15 26.15Q155.90 26.15 155.40 26.13Q154.90 26.10 154.60 26.05Q154.25 25.95 154.05 25.75Q153.85 25.55 153.85 25.35Q153.85 25.05 154.10 25Q154.75 24.80 155.50 24.40Q156.25 24 156.90 23.35Q157.60 22.65 158.20 21.88Q158.80 21.10 159.15 20.70Q159.50 20.45 159.90 20.45Q160.15 20.45 160.38 20.60Q160.60 20.75 160.60 21.05Q160.60 21.40 160.30 21.95Q159.85 22.65 159.33 23.50Q158.80 24.35 158.35 25.05Q159.25 25.10 160.15 25.15Q161.05 25.20 162 25.20Q162.50 25.20 162.98 25.17Q163.45 25.15 163.95 25.15Q165.45 25.15 165.45 25.90Q165.45 26.40 164.93 27.13Q164.40 27.85 163.65 28.70Q161.95 30.65 160.75 32.80Q159.55 34.95 159.15 36.10Q158.75 37.30 158.75 37.90Q158.75 39.10 159.70 39.10Q160.55 39.10 161.78 38.25Q163 37.40 164.30 36.17Q165.60 34.95 166.65 33.77Q167.70 32.60 168.15 32Q168.25 31.85 168.45 31.85Q168.65 31.85 168.80 32.02Q168.95 32.20 168.80 32.45Q168.25 33.30 167.20 34.58Q166.15 35.85 164.85 37.10Q163.55 38.35 162.30 39.25Q161.65 39.75 160.53 40.17Q159.40 40.60 158.40 40.60ZM176.35 58.35Q175.75 58.20 175.30 58.05Q174.35 57.55 173.95 56.92Q173.55 56.30 173.55 55.60Q173.55 54.45 174.32 53.13Q175.10 51.80 176.35 50.40Q177.60 48.90 179.52 47.35Q181.45 45.80 183.55 44.38Q185.65 42.95 187.25 41.90Q189 38.35 190.35 35.17Q191.70 32 192.25 30.30Q191.20 31.45 190 32.88Q188.80 34.30 188.25 34.95Q187.30 35.95 186.10 37.13Q184.90 38.30 183.57 39.13Q182.25 39.95 181 39.95Q180.20 39.95 179.30 39.48Q178.40 39 177.85 38.25Q177.10 37.25 177.10 36.20Q177.10 34.85 178.02 33.40Q178.95 31.95 180.42 30.57Q181.90 29.20 183.57 28.07Q185.25 26.95 186.77 26.17Q188.30 25.40 189.25 25.15Q190.15 24.85 191.45 24.85Q192.05 24.85 192.90 25.05Q193.75 25.25 194.42 25.67Q195.10 26.10 195.10 26.90Q195.10 27.30 194.70 27.15Q194.35 26.55 193.67 26.38Q193 26.20 192.30 26.20Q190.35 26.20 187.92 27.50Q185.50 28.80 183.60 30.55Q183 31.05 181.95 32.27Q180.90 33.50 180.07 34.95Q179.25 36.40 179.25 37.60Q179.25 38.25 179.60 38.75Q179.75 39 180.20 39Q181.15 39 182.52 38.15Q183.90 37.30 185.45 36Q187 34.70 188.47 33.23Q189.95 31.75 191.10 30.50Q192.25 29.25 192.80 28.60Q192.90 28.35 193.15 28.25Q193.40 28.15 193.70 28.15Q194.50 28.15 195.38 28.57Q196.25 29 196.10 29.30Q195.15 31.35 193.88 34.05Q192.60 36.75 191.20 39.70Q191.85 39.35 193.35 38.15Q194.85 36.95 196.65 35.27Q198.45 33.60 200 31.80Q200.60 31.15 200.90 31.15Q201.20 31.15 201.05 31.67Q200.90 32.20 200.25 33Q199.45 33.95 198.05 35.27Q196.65 36.60 195.10 37.98Q193.55 39.35 192.22 40.42Q190.90 41.50 190.15 41.90Q188.60 45.20 187.15 48.13Q185.70 51.05 184.50 52.85Q183.70 54.10 182.55 55.40Q181.40 56.70 180.05 57.58Q178.70 58.45 177.20 58.45Q177 58.45 176.80 58.42Q176.60 58.40 176.35 58.35M175.85 57.05Q176.15 57.25 176.72 57.05Q177.30 56.85 178.20 56.15Q180.15 54.60 181.55 52.52Q182.95 50.45 184.10 48.17Q185.25 45.90 186.30 43.80Q184.35 45.25 181.90 47.23Q179.45 49.20 177.45 51.15Q176.45 52.15 175.77 53.38Q175.10 54.60 175.10 55.60Q175.10 56.65 175.85 57.05ZM203.10 40.55Q201.70 40.55 200.65 39.90Q198.90 38.85 198.90 36.10Q198.90 34.95 199.30 33.45Q199.65 32.20 200.55 30.73Q201.45 29.25 202.67 27.90Q203.90 26.55 205.35 25.70Q206.80 24.85 208.25 24.85Q208.85 24.85 209.30 25Q209.90 25.20 210.32 25.73Q210.75 26.25 210.75 27.05Q210.75 27.90 210.32 28Q209.90 28.10 209.90 27.80Q209.90 27.70 209.92 27.60Q209.95 27.50 209.95 27.45Q209.95 27.05 209.72 26.73Q209.50 26.40 208.90 26.40Q208.10 26.40 206.92 27.25Q205.75 28.10 204.52 29.52Q203.30 30.95 202.38 32.65Q201.45 34.35 201.15 36.05Q201.10 36.30 201.07 36.52Q201.05 36.75 201.05 37Q201.05 38.15 201.57 38.92Q202.10 39.70 203.25 39.70Q204.65 39.70 205.95 38.63Q207.25 37.55 208.27 36.05Q209.30 34.55 209.80 33.40Q210.20 32.50 210.35 31.85Q210.50 31.20 210.50 30.75Q210.50 30.35 210.42 30.05Q210.35 29.75 210.25 29.55Q210.15 29.25 210.15 29.10Q210.15 28.70 210.47 28.45Q210.80 28.20 211.15 28.20Q211.45 28.20 211.80 28.40Q212.20 28.50 212.90 28.55Q213.60 28.60 214.40 28.60Q215.25 28.60 216.13 28.55Q217 28.50 217.65 28.35Q217.75 28.30 217.95 28.30Q218.30 28.30 218.30 28.50Q218.30 28.70 217.95 28.85Q216.20 29.65 214.82 29.70Q213.45 29.75 212.45 29.75Q212.55 31 211.90 32.42Q211.25 33.85 210.55 34.95Q209.70 36.20 208.60 37.50Q207.50 38.80 206.15 39.67Q204.80 40.55 203.10 40.55ZM222.60 31.50Q221.70 31.50 221.70 31Q221.70 30.60 222.27 30.15Q222.85 29.70 223.35 29.70Q223.90 29.70 225.25 29.67Q226.60 29.65 228.15 29.63Q229.70 29.60 230.70 29.60Q231.95 29.60 232.72 29.82Q233.50 30.05 233.50 30.30Q233.50 30.60 232.90 30.75Q232.30 30.90 231.65 30.98Q231.00 31.05 230.75 31.10Q229.55 31.15 227.92 31.25Q226.30 31.35 224.82 31.42Q223.35 31.50 222.60 31.50ZM237.80 40.50Q236.90 40.50 236.17 40.10Q235.45 39.70 235.10 38.60Q235.05 38.45 235.03 38.30Q235 38.15 235 37.95Q235 36.95 235.45 35.45Q235.90 33.95 236.55 32.55Q236.25 32.95 235.85 33.52Q235.45 34.10 234.70 35Q234.50 35.20 234.25 35.20Q233.90 35.20 233.90 34.80Q233.90 34.50 234.10 34.30Q235.40 32.65 236.42 31.35Q237.45 30.05 237.95 29.15Q237.95 29.05 238.25 28.52Q238.55 28 239.05 27.05Q238.65 27.10 238.38 27.13Q238.10 27.15 237.90 27.15Q237.55 27.15 237.30 26.85Q237.05 26.55 237.25 26.10Q237.50 25.40 238.35 25.30Q239.20 25.20 239.85 25.15Q239.90 25.05 240.05 25.05Q240.65 23.95 241.20 22.90Q241.75 21.85 242.13 21.15Q242.50 20.45 242.50 20.40Q243.50 18.80 243.80 18.27Q244.10 17.75 244.60 17.65Q245.15 17.60 245.78 17.70Q246.40 17.80 246.60 18.15Q246.75 18.35 246.75 18.65Q246.75 19.10 246.55 19.52Q246.35 19.95 246.15 20.20Q245.95 20.55 245.63 20.67Q245.30 20.80 245.05 21.30Q244.55 22.25 243.95 23.35Q243.35 24.45 242.70 25.45L243.30 25.40Q244.50 25.30 245.57 25.15Q246.65 25 248.05 25.05Q248.30 25.05 248.57 25.13Q248.85 25.20 248.85 25.35Q248.85 25.55 247.55 25.90Q247.05 26.10 245.38 26.32Q243.70 26.55 241.95 26.75Q241.45 27.70 241.05 28.32Q240.65 28.95 240.50 29.25Q239.40 31.55 238.53 33.42Q237.65 35.30 237.55 36.50Q237.50 36.70 237.50 36.88Q237.50 37.05 237.50 37.25Q237.50 39.25 238.80 39.25Q239.60 39.25 240.85 38.38Q242.10 37.50 243.40 36.23Q244.70 34.95 245.78 33.77Q246.85 32.60 247.25 32Q247.40 31.85 247.55 31.85Q247.75 31.85 247.88 32Q248 32.15 247.90 32.40Q247.45 33.25 246.38 34.52Q245.30 35.80 243.97 37.08Q242.65 38.35 241.40 39.25Q240.75 39.75 239.78 40.13Q238.80 40.50 237.80 40.50ZM250.55 40.55Q249.15 40.55 248.10 39.90Q246.35 38.85 246.35 36.10Q246.35 34.95 246.75 33.45Q247.10 32.20 248 30.73Q248.90 29.25 250.13 27.90Q251.35 26.55 252.80 25.70Q254.25 24.85 255.70 24.85Q256.30 24.85 256.75 25Q257.35 25.20 257.77 25.73Q258.20 26.25 258.20 27.05Q258.20 27.90 257.77 28Q257.35 28.10 257.35 27.80Q257.35 27.70 257.38 27.60Q257.40 27.50 257.40 27.45Q257.40 27.05 257.18 26.73Q256.95 26.40 256.35 26.40Q255.55 26.40 254.38 27.25Q253.20 28.10 251.97 29.52Q250.75 30.95 249.83 32.65Q248.90 34.35 248.60 36.05Q248.55 36.30 248.53 36.52Q248.50 36.75 248.50 37Q248.50 38.15 249.03 38.92Q249.55 39.70 250.70 39.70Q252.10 39.70 253.40 38.63Q254.70 37.55 255.72 36.05Q256.75 34.55 257.25 33.40Q257.65 32.50 257.80 31.85Q257.95 31.20 257.95 30.75Q257.95 30.35 257.88 30.05Q257.80 29.75 257.70 29.55Q257.60 29.25 257.60 29.10Q257.60 28.70 257.93 28.45Q258.25 28.20 258.60 28.20Q258.90 28.20 259.25 28.40Q259.65 28.50 260.35 28.55Q261.05 28.60 261.85 28.60Q262.70 28.60 263.57 28.55Q264.45 28.50 265.10 28.35Q265.20 28.30 265.40 28.30Q265.75 28.30 265.75 28.50Q265.75 28.70 265.40 28.85Q263.65 29.65 262.27 29.70Q260.90 29.75 259.90 29.75Q260 31 259.35 32.42Q258.70 33.85 258 34.95Q257.15 36.20 256.05 37.50Q254.95 38.80 253.60 39.67Q252.25 40.55 250.55 40.55Z"/></g></g></svg>