<svg xmlns="http://www.w3.org/2000/svg" viewBox="0 24.850000381469727 23.933332443237305 15.649999618530273" data-asc="0.8" width="23.933332443237305" height="15.649999618530273"><defs/><g fill="#000000"><g transform="translate(0, 0)"><path d="M13.75 40.50Q12.85 40.50 12.15 40.10Q11.45 39.70 11.10 38.60Q11.05 38.35 10.98 38.02Q10.90 37.70 10.90 37.35Q10.90 36.15 11.23 34.65Q11.55 33.15 11.95 32.15Q11.75 32.30 11.25 33.15Q10.75 34 10.00 35.13Q9.25 36.25 8.33 37.38Q7.40 38.50 6.33 39.23Q5.25 39.95 4.05 39.95Q3.25 39.95 2.13 39.50Q1 39.05 0.50 38.25Q0 37.45 0 36.25Q0 34.80 0.65 33.08Q1.30 31.35 2.30 29.85Q2.65 29.35 3.10 28.65Q3.55 27.95 4 27.42Q4.45 26.90 4.65 26.85Q5.25 26.65 6.05 26.65Q6.90 26.65 7.30 26.85Q7.65 27 7.65 27.20Q7.65 27.45 7.25 27.85Q6.70 28.35 5.75 29.35Q4.80 30.35 3.88 31.75Q2.95 33.15 2.35 34.85Q1.85 36.20 1.85 37.20Q1.85 38.95 3.25 38.95Q4.45 38.95 5.80 37.95Q7.15 36.95 8.43 35.50Q9.70 34.05 10.73 32.63Q11.75 31.20 12.30 30.35Q12.80 29.65 13.43 28.55Q14.05 27.45 14.65 26.40Q15.25 25.35 15.60 24.85Q15.95 24.85 16.68 24.98Q17.40 25.10 17.93 25.40Q18.45 25.70 18.20 26.15Q17.90 26.65 17.27 27.70Q16.65 28.75 16.02 29.82Q15.40 30.90 15.05 31.55Q13.85 33.85 13.50 36.50Q13.45 36.70 13.45 36.88Q13.45 37.05 13.45 37.25Q13.45 39.25 14.80 39.25Q15.55 39.25 16.80 38.35Q18.05 37.45 19.38 36.20Q20.70 34.95 21.77 33.77Q22.85 32.60 23.25 32Q23.35 31.85 23.55 31.85Q23.75 31.85 23.88 32Q24 32.15 23.85 32.40Q23.40 33.25 22.32 34.52Q21.25 35.80 19.95 37.08Q18.65 38.35 17.40 39.25Q16.75 39.75 15.75 40.13Q14.75 40.50 13.75 40.50Z"/></g></g></svg>