<svg width="733" height="127" viewBox="0 0 733 127" fill="none" xmlns="http://www.w3.org/2000/svg">
<rect width="733" height="127" fill="#1E1E1E"/>
<g filter="url(#filter0_d_0_1)">
<path d="M452.712 0.295898C456.082 0.295917 459.289 0.555479 462.329 1.0752C465.474 1.51272 468.26 2.34584 470.673 3.59082C473.706 5.01837 476.074 6.95967 477.726 9.43066C479.366 11.8007 480.208 14.3435 480.208 17.04C480.208 20.8024 478.496 24.0548 475.239 26.7686L475.225 26.7803L475.209 26.793C474.058 27.6785 472.78 28.5151 471.378 29.3037L471.356 29.3154L471.335 29.3262C469.897 30.0449 468.211 30.6637 466.287 31.1885L466.266 31.1943C465.831 31.303 465.363 31.3516 464.871 31.3516C464.295 31.3515 463.699 31.273 463.216 30.9912C462.721 30.7022 462.418 30.2418 462.351 29.6953L462.336 29.4561L462.343 29.2959C462.415 28.5096 463.012 27.9574 463.549 27.5996C464.338 27.0462 465.367 26.7665 466.537 26.6709C468.904 26.3542 470.558 25.4686 471.639 24.1006L471.648 24.0879L471.658 24.0762C472.871 22.6364 473.472 20.9872 473.472 19.0879C473.472 17.1157 472.793 15.1398 471.356 13.1445L471.343 13.126L471.331 13.1074C470.006 11.0813 467.907 9.35359 464.956 7.95996L464.937 7.9502C462.047 6.50547 458.288 5.75195 453.607 5.75195C450.949 5.75199 447.981 6.04216 444.7 6.63086C441.521 7.21664 438.031 8.1828 434.23 9.53418L434.222 9.53711C429.661 11.1129 425.873 13.4233 422.836 16.457C419.902 19.4728 418.512 22.6056 418.512 25.8721C418.512 27.8586 419.158 29.9324 420.524 32.1074C421.956 34.1661 424.26 36.2055 427.508 38.2041C430.284 39.8863 433.445 41.5736 436.995 43.2646C440.582 44.8874 444.213 46.5527 447.886 48.2607C451.584 49.8955 454.947 51.6639 457.973 53.5654C462.747 56.5169 466.255 59.7317 468.411 63.2354C470.544 66.702 471.632 70.2952 471.632 74C471.632 78.3042 470.329 82.6142 467.782 86.9189L467.783 86.9199C465.339 91.1099 462.118 95.0671 458.131 98.7939L458.122 98.8027C454.146 102.433 449.783 105.672 445.034 108.521L445.03 108.523C439.475 111.822 433.195 114.331 426.199 116.059L426.198 116.058C419.294 117.869 412.302 118.776 405.224 118.776C396.762 118.776 388.967 117.524 381.851 115.007L381.847 115.006C374.801 112.483 369.063 108.77 364.67 103.85L364.664 103.844C360.237 98.7966 357.816 92.6056 357.377 85.3242V85.3223C357.198 82.2716 357.693 78.947 358.83 75.3613C359.963 71.7899 361.529 68.2686 363.524 64.7979L363.528 64.791C365.617 61.2224 368.059 58.039 370.853 55.2451C373.724 52.3735 376.789 50.1751 380.048 48.6689C380.462 48.4164 380.974 48.2704 381.507 48.1816L381.53 48.1777C382.128 48.0923 382.617 48.0401 382.951 48.04C383.258 48.04 383.638 48.073 383.975 48.2412C384.157 48.3325 384.355 48.4776 384.504 48.7012C384.657 48.9311 384.72 49.1849 384.72 49.4238C384.72 49.7724 384.593 50.0718 384.466 50.292C384.334 50.5198 384.159 50.7361 383.969 50.9395C383.592 51.3416 383.063 51.7835 382.412 52.2617C378.916 55.0094 376.053 58.1663 373.814 61.7314L373.811 61.7383L373.806 61.7451C371.47 65.3314 369.72 69.1663 368.553 73.251C367.383 77.3444 366.8 81.4758 366.8 85.6475C366.8 90.5344 367.833 94.7037 369.859 98.1924C371.861 101.42 374.473 104.11 377.707 106.265L378.363 106.689L378.37 106.693L378.377 106.698C381.94 109.018 386.013 110.725 390.605 111.811C395.219 112.901 400.049 113.448 405.096 113.448C410.737 113.448 416.294 112.817 421.767 111.554L421.77 111.553C427.328 110.29 432.367 108.482 436.892 106.136C443.859 102.441 449.323 97.8834 453.315 92.4775L453.321 92.4697C457.408 87.049 459.392 81.7507 459.392 76.5596C459.392 73.8113 458.786 71.1869 457.571 68.6758L457.565 68.6631L457.561 68.6514C456.514 66.3341 454.824 64.1967 452.451 62.2471L451.963 61.8564C449.985 60.2905 447.533 58.7902 444.595 57.3633L444.584 57.3584C441.707 55.92 438.615 54.5219 435.308 53.165L435.3 53.1611C432.054 51.7946 428.851 50.4281 425.69 49.0615L425.681 49.0576L425.67 49.0527C422.472 47.5836 419.649 46.021 417.206 44.3633C413.713 42.0048 411.079 39.434 409.363 36.6348L409.356 36.624L409.351 36.6143C407.74 33.8406 406.911 31.0234 406.911 28.1758C406.911 24.819 407.867 21.5708 409.742 18.4453L409.747 18.4365L409.753 18.4277C411.702 15.3271 414.306 12.552 417.548 10.0986C420.879 7.55727 424.601 5.58783 428.708 4.18945C432.264 2.9752 436.116 2.02455 440.259 1.33398L440.263 1.33301C444.494 0.642186 448.645 0.295923 452.712 0.295898ZM402.146 117.718C402.649 117.737 403.155 117.752 403.663 117.762L405.224 117.776C404.187 117.776 403.162 117.756 402.146 117.718ZM121.191 4.13574C121.498 4.13574 121.878 4.16957 122.215 4.33789C122.397 4.42912 122.594 4.57363 122.743 4.79688C122.896 5.02672 122.96 5.28068 122.96 5.51953C122.96 5.94181 122.747 6.3029 122.611 6.50879C122.446 6.7597 122.222 7.03217 121.96 7.31738C121.436 7.88702 120.674 8.60095 119.693 9.4541C118.657 10.411 117.38 11.9278 115.859 14.04L115.848 14.0557C114.499 15.8539 113.115 17.8213 111.695 19.958C116.553 23.2313 120.869 27.1625 124.64 31.75C128.728 36.5337 131.942 42.0093 134.284 48.168C136.638 54.2716 137.808 61.0522 137.808 68.4961C137.808 75.7785 136.55 82.1987 134.004 87.7305L134.001 87.7354C131.467 93.1532 128.006 97.6706 123.617 101.27C119.248 104.852 114.229 107.512 108.57 109.255C102.919 111.08 96.97 111.992 90.7275 111.992C83.3836 111.992 76.5396 110.998 70.2031 109.002L70.1992 109C64.2337 107.094 58.6624 104.946 53.4863 102.556C49.3804 105.753 45.1018 108.199 40.6484 109.88L40.6475 109.879C36.0911 111.63 31.2352 112.504 26.0879 112.504C22.4903 112.504 19.057 111.977 15.7949 110.919C12.5098 109.853 9.76371 108.242 7.58887 106.067L7.57324 106.052C5.41686 103.801 4.35156 100.986 4.35156 97.6797C4.35165 94.195 5.87216 91.0849 8.76367 88.374L8.76953 88.3691L8.77441 88.3643C11.8301 85.5864 16.0702 84.2637 21.3516 84.2637C26.8802 84.2637 32.1087 85.5369 37.0234 88.0781C41.7007 90.3757 46.6134 92.8724 51.7607 95.5625C56.0093 91.3885 59.799 86.5901 63.123 81.1582L63.125 81.1543C66.6934 75.3768 70.0927 69.2999 73.3232 62.9238L73.3281 62.9141C76.6601 56.5064 80.0782 50.1416 83.5811 43.8193C87.1054 37.3731 91.061 31.3955 95.4492 25.8887L95.458 25.8789C95.8419 25.4097 96.2255 24.9399 96.6094 24.4707C96.9887 24.0071 97.3677 23.5427 97.7471 23.0791C98.2807 22.3684 98.8361 21.6787 99.4102 21.0078C95.1802 18.6183 90.6631 16.7626 85.8555 15.4443L85.8477 15.4424L85.8408 15.4404C80.6429 13.9314 75.275 13.1758 69.7354 13.1758C62.8241 13.1758 56.4366 14.0606 50.5674 15.8213C44.6794 17.5877 39.5712 19.9787 35.2324 22.9824L35.2295 22.9844C30.9702 25.9075 27.6561 29.229 25.2637 32.9414L25.2588 32.9502C22.8784 36.5619 21.7119 40.2561 21.7119 44.0479C21.7119 47.4865 22.4051 50.2732 23.7275 52.4639C25.1712 54.6257 26.9557 56.203 29.0811 57.2266C31.2702 58.2806 33.3846 58.7919 35.4316 58.792C38.2957 58.792 40.69 58.2596 42.6504 57.2402C44.6719 56.1042 46.3091 54.7389 47.5791 53.1514C48.9001 51.5001 49.8703 49.9142 50.5098 48.3955C51.1762 46.8127 51.5144 45.6026 51.5869 44.7324C51.6055 44.2294 51.7927 43.7164 52.2578 43.3545C52.701 43.0099 53.2495 42.92 53.7354 42.9199C54.529 42.9199 55.3382 43.1716 55.8232 43.9209C56.2549 44.5881 56.2688 45.4223 56.1348 46.2188L56.1357 46.2197C55.6861 49.8165 54.3322 52.9843 52.0723 55.6963L52.0664 55.7021L52.0605 55.709C49.8369 58.2883 47.1675 60.3347 44.0605 61.8438L44.0391 61.8535C40.9275 63.2759 37.7136 63.9922 34.4072 63.9922C30.5294 63.9921 26.9755 63.2858 23.7617 61.8574L23.751 61.8535L23.7402 61.8486C20.5049 60.3207 17.8895 58.0662 15.9111 55.0986L15.9023 55.084L15.8926 55.0693C13.9833 51.9779 13.0557 48.2447 13.0557 43.9199C13.0557 38.1822 14.604 33.0331 17.7109 28.5059C20.7905 23.9331 25.0016 20.0824 30.3154 16.9463C35.6175 13.8172 41.6861 11.4371 48.5098 9.7959C55.3335 8.15475 62.5378 7.336 70.1191 7.33594C76.0016 7.33594 81.9236 8.07119 87.8818 9.53809L88.998 9.80566C94.3081 11.1272 99.3766 13.0407 104.203 15.541C106.003 13.5762 107.834 11.7981 109.697 10.2119L110.576 9.48047C113.029 7.46607 115.544 5.91809 118.121 4.85156L118.133 4.84668L118.145 4.84277C119.296 4.39985 120.327 4.13586 121.191 4.13574ZM328.153 29.1123C327.105 30.2413 325.608 32.2716 323.648 35.2529C321.783 38.2209 319.661 41.787 317.281 45.9521L317.28 45.9512C314.979 50.127 312.509 54.6445 309.867 59.502C307.311 64.2743 304.754 69.1321 302.197 74.0752C301.145 76.1438 300.124 78.1588 299.134 80.1191C300.862 78.2435 302.557 76.5955 304.22 75.1797C306.144 73.4305 308.533 71.6083 311.378 69.7119L311.39 69.7041C314.322 67.807 317.216 66.1651 320.072 64.7803L320.083 64.7754C323.02 63.3932 325.488 62.6319 327.421 62.6318C328.027 62.6319 328.595 62.6712 329.017 62.8115L330.155 63.1904L329.577 64.2422L329.571 64.252C329.568 64.2586 329.562 64.269 329.555 64.2822C329.54 64.3089 329.517 64.3484 329.488 64.4014C329.43 64.508 329.342 64.6686 329.225 64.8818C328.99 65.3085 328.638 65.9486 328.169 66.8018C327.233 68.5031 326.042 70.6707 324.597 73.3057C323.234 75.9466 321.785 78.8024 320.251 81.8711C318.813 84.9181 317.545 87.8352 316.447 90.6221L316.443 90.6318C315.346 93.3335 314.647 95.5265 314.323 97.2266C314.074 98.556 313.957 99.6415 313.957 100.496C313.957 101.759 314.2 102.346 314.41 102.579C314.748 102.847 315.067 102.952 315.389 102.952C316.495 102.952 317.801 102.397 319.327 101.032C320.967 99.5562 322.583 97.6963 324.171 95.4404C325.768 93.1711 327.239 90.7738 328.586 88.249L328.592 88.2393C330.024 85.6276 331.153 83.1973 331.986 80.9482L332.229 80.2959H332.925C333.533 80.2959 334.171 80.4054 334.677 80.7842C335.236 81.2038 335.461 81.8204 335.461 82.4482V82.6436L335.387 82.8252C334.434 85.1628 333.226 87.7504 331.766 90.5859L331.765 90.585C330.376 93.3605 328.772 96.0069 326.95 98.5225C325.109 101.066 323.079 103.188 320.857 104.876C318.572 106.612 316.103 107.512 313.469 107.512C311.519 107.512 309.579 106.827 307.666 105.552C305.481 104.095 304.532 101.517 304.532 98.1924C304.532 97.1934 304.623 96.1565 304.802 95.084C304.982 93.917 305.294 92.6334 305.73 91.2373C306.271 89.4384 307.161 87.4917 308.38 85.4014C309.579 83.2612 311.116 80.6137 312.99 77.4609L313.279 76.9502C313.898 75.8079 314.133 75.0126 314.133 74.5117C314.133 74.1541 314.043 74.0697 314.041 74.0674C314.035 74.0613 313.946 73.9756 313.597 73.9756C313.024 73.9757 312.067 74.2831 310.647 75.1182C309.298 75.9119 307.53 77.3414 305.33 79.457C303.242 81.4619 300.626 84.4108 297.479 88.3223C294.383 92.1715 291.049 97.6077 287.48 104.659L287.475 104.671L287.469 104.682C286.815 105.895 285.91 106.854 284.651 106.994L284.596 107H284.541C283.898 107 282.995 107.04 281.822 107.123C281.048 107.209 280.272 107.251 279.497 107.254C278.91 107.325 278.473 107.515 278.141 107.792L276.602 106.585C277.362 105.029 278.127 103.457 278.898 101.87C278.348 102.456 277.782 103.014 277.198 103.542C274.354 106.111 270.866 107.384 266.8 107.384C265.197 107.384 263.697 107.221 262.305 106.895C260.327 107.306 258.198 107.512 255.92 107.512C252.201 107.512 249.081 106.37 246.65 104.033L246.637 104.02L246.623 104.005C245.311 102.64 244.351 101.21 243.775 99.7197C242.328 101.502 240.743 103.052 239.017 104.364L239.016 104.363C236.813 106.102 234.385 107 231.756 107C228.425 107 225.826 106.049 224.286 103.894L224.279 103.884L224.273 103.875C222.874 101.823 222.18 99.4912 222.18 96.9121C222.18 96.1024 222.228 95.2928 222.325 94.4844C221.492 95.8922 220.601 97.2781 219.649 98.6377C217.891 101.186 215.901 103.313 213.676 105.004C211.384 106.746 208.87 107.64 206.158 107.64C204.212 107.639 202.236 106.957 200.246 105.691L200.236 105.686L200.228 105.68C198.036 104.219 197.095 101.59 197.095 98.1924C197.095 97.1934 197.186 96.1565 197.364 95.084C197.545 93.9126 197.858 92.6663 198.298 91.3477L198.308 91.3193L198.318 91.293C199.01 89.5628 199.83 87.7074 200.776 85.7285C201.739 83.7148 203.299 80.9887 205.438 77.5654L205.442 77.5586C206.031 76.6337 206.274 76.0543 206.324 75.7559L206.337 75.6777L206.362 75.6035C206.516 75.1416 206.566 74.8297 206.566 74.6396C206.566 74.2728 206.483 74.1704 206.478 74.1641C206.476 74.1623 206.466 74.1519 206.433 74.1396C206.39 74.1241 206.304 74.1035 206.158 74.1035C205.674 74.1038 204.729 74.4042 203.21 75.2461L202.952 75.4023C201.638 76.2211 199.955 77.6013 197.892 79.585C195.806 81.5871 193.278 84.4458 190.309 88.1787L190.31 88.1797C187.461 91.8661 184.122 97.3533 180.293 104.672L180.287 104.682C179.636 105.891 178.734 106.846 177.481 106.991L177.482 106.992H177.478C177.475 106.993 177.471 106.994 177.469 106.994L177.468 106.993C176.76 107.081 175.765 107.168 174.494 107.253C173.652 107.337 172.851 107.422 172.093 107.506C171.444 107.578 170.966 107.752 170.617 107.984L167.484 110.072L169.168 106.705C170.187 104.667 171.164 102.628 172.098 100.591L172.104 100.576L172.112 100.561C172.262 100.262 172.407 99.9621 172.555 99.665C170.701 101.257 168.725 102.713 166.626 104.031L166.619 104.035L166.612 104.04C162.802 106.344 158.826 107.512 154.702 107.512C151.309 107.512 148.232 106.404 145.502 104.221L145.495 104.216L145.489 104.21C142.72 101.918 141.415 98.4782 141.415 94.0957C141.415 90.0917 142.394 85.8605 144.312 81.4121C146.227 76.8889 148.669 72.916 151.645 69.5029C154.182 66.5297 157.033 64.0725 160.197 62.1387C163.377 60.1953 166.459 59.1759 169.423 59.1758C171.364 59.1758 173.1 59.6763 174.592 60.7002L174.887 60.9121L174.894 60.918C176.624 62.2413 177.463 64.1321 177.463 66.4482C177.463 68.8347 176.557 71.3676 174.875 74.0234C173.175 76.7076 170.778 79.1834 167.715 81.459L167.71 81.4619C166.354 82.4566 164.662 83.3874 162.653 84.2607C160.657 85.1285 158.659 85.8677 156.658 86.4766L156.639 86.4824L156.619 86.4873C154.935 86.9266 153.455 87.191 152.194 87.2646C151.87 88.1426 151.537 89.249 151.2 90.5938C150.874 92.2296 150.711 93.9086 150.711 95.6318C150.711 97.6282 151.109 99.3923 151.885 100.944C152.226 101.626 152.693 102.11 153.29 102.433C153.898 102.761 154.695 102.952 155.727 102.952C158.475 102.952 161.361 102.011 164.398 100.041C167.483 98.0403 170.409 95.5753 173.175 92.6416C176.023 89.6254 178.36 86.6627 180.191 83.7568C181.211 81.5511 182.273 79.3872 183.376 77.2646C184.488 75.0415 185.599 72.8607 186.711 70.7227L186.718 70.71L186.725 70.6982C188.331 67.8059 189.755 65.6584 190.997 64.3311L191.243 64.0771C192.648 62.5858 194.496 61.8644 196.687 61.8643C197.473 61.8643 198.283 62.0081 199.11 62.2773C199.798 62.428 200.484 62.5039 201.167 62.5039C201.649 62.5039 201.902 62.4599 202.002 62.4268L202.814 64.2441C201.83 64.8069 200.362 66.3412 198.397 69.0732L198.398 69.0742C196.546 71.6849 194.644 74.7265 192.694 78.2012C192.256 78.9831 191.828 79.7544 191.411 80.5146C193.106 78.7007 194.943 76.96 196.924 75.2949C199.011 73.4683 201.48 71.6078 204.324 69.7119C207.26 67.7264 210.12 66.0789 212.902 64.7744C215.67 63.4769 218.009 62.7599 219.854 62.7598C220.461 62.7598 221.03 62.799 221.451 62.9395L222.589 63.3184L222.011 64.3701L222.01 64.3721C222.01 64.3721 222.007 64.3769 222.005 64.3799C222.001 64.3866 221.996 64.397 221.989 64.4102C221.975 64.4368 221.952 64.477 221.923 64.5303C221.864 64.6369 221.776 64.7968 221.659 65.0098C221.425 65.4364 221.072 66.0764 220.603 66.9297L220.598 66.9395L220.592 66.9492C219.663 68.5533 218.476 70.7131 217.03 73.4336C215.671 76.067 214.269 78.9159 212.823 81.9785L212.818 81.9893C211.375 84.9618 210.059 87.8475 208.871 90.6465C207.779 93.3374 207.083 95.5662 206.759 97.3467L206.754 97.3701L206.749 97.3926C206.507 98.4431 206.391 99.3913 206.391 100.24C206.391 100.869 206.45 101.334 206.544 101.661C206.638 101.99 206.747 102.117 206.799 102.16C207.153 102.455 207.487 102.568 207.822 102.568C209.129 102.568 210.572 101.985 212.167 100.63C213.788 99.2516 215.351 97.4491 216.847 95.2051L216.854 95.1943L216.86 95.1846C218.457 92.9152 219.93 90.5179 221.276 87.9932C222.63 85.4546 223.768 83.0924 224.693 80.9062L224.952 80.2959H225.614C226.11 80.2959 226.625 80.3707 227.072 80.6025L232.36 67.1074C232.587 66.4998 232.676 66.03 232.676 65.6797C232.676 65 232.508 64.4862 232.222 64.085L232.204 64.0596L232.188 64.0342C231.76 63.3509 231.469 62.8925 231.308 62.6504L230.314 61.1611L239.113 60.8418L239.606 60.8203C240.703 60.7984 241.706 60.9702 242.425 61.5205C243.182 61.9716 243.764 62.6659 243.764 63.6318C243.764 64.0464 243.65 64.529 243.492 65.0234C243.328 65.538 243.09 66.1488 242.784 66.8486C241.923 68.9135 240.766 71.4832 239.315 74.5547C237.871 77.6139 236.426 80.7586 234.981 83.9883L233.993 86.3701C233.041 88.7033 232.184 90.9158 231.423 93.0078C230.494 95.7963 230.067 97.8465 230.067 99.2158C230.067 100.148 230.278 100.872 230.645 101.439C230.988 101.865 231.612 102.183 232.779 102.184C234.296 102.184 235.83 101.611 237.398 100.358L237.717 100.095C239.305 98.7549 240.8 97.0813 242.197 95.0625C242.744 94.2734 243.272 93.4609 243.786 92.627C244.053 91.8873 244.402 91.1745 244.834 90.4902C245.106 90.0043 245.408 89.5695 245.743 89.1924C245.948 88.8044 246.151 88.4131 246.35 88.0166L246.361 87.9932C247.715 85.4546 248.853 83.0924 249.778 80.9062L250.037 80.2959H250.699C251.304 80.2959 251.938 80.4046 252.442 80.7783C253.012 79.657 253.574 78.5317 254.125 77.4014L254.129 77.3926C255.925 73.8003 257.892 69.9955 260.028 65.9785L260.031 65.9736C261.855 62.5871 263.825 59.7772 265.95 57.5635L265.957 57.5557L265.965 57.5488C268.271 55.243 270.994 54.0558 274.096 54.0557C274.913 54.0557 275.95 54.254 277.164 54.5996C277.853 54.7528 278.49 55.0279 278.963 55.501C279.471 56.0088 279.703 56.6582 279.703 57.3604C279.703 57.8881 279.549 58.4576 279.08 58.875C278.633 59.2724 278.063 59.3838 277.552 59.3838C276.77 59.3837 275.945 59.1626 275.098 58.7861L275.057 58.7666C274.42 58.4484 274.033 58.3604 273.84 58.3604C272.691 58.3605 271.604 58.9933 270.604 60.6846C269.584 62.4113 269.079 64.2422 269.079 66.1924C269.079 68.3837 269.445 70.3433 270.157 72.085C270.906 73.8292 271.779 75.5334 272.777 77.1973C273.821 78.9366 274.735 80.7212 275.52 82.5498L275.67 82.8975C276.4 84.6496 276.76 86.5516 276.76 88.5918C276.76 92.8126 275.925 96.3443 274.173 99.1113L274.172 99.1104C273.375 100.394 272.444 101.527 271.384 102.511C273.762 101.639 275.839 99.9412 277.626 97.3662L277.628 97.3623C280.562 93.1711 283.475 87.6914 286.359 80.9043L286.618 80.2959H287.279C287.887 80.2959 288.526 80.4054 289.031 80.7842C289.043 80.793 289.055 80.8025 289.066 80.8115C292.569 73.6045 296.137 66.363 299.774 59.0889C303.875 50.8883 307.933 43.0707 311.949 35.6367L311.953 35.6279L311.959 35.6191C313.424 33.0337 314.779 30.9729 316.024 29.46L316.035 29.4473L316.047 29.4346C317.529 27.7551 319.473 26.9201 321.788 26.9199C322.662 26.9199 323.643 27.0651 324.719 27.334C325.619 27.5591 326.457 27.5907 327.241 27.4482L330.198 26.9102L328.153 29.1123ZM520.583 29.1123C519.535 30.2413 518.037 32.2717 516.078 35.2529C514.213 38.2209 512.091 41.787 509.711 45.9521C507.41 50.1278 504.939 54.6446 502.297 59.502C499.74 64.2743 497.184 69.1321 494.627 74.0752C493.574 76.1439 492.553 78.1587 491.562 80.1191C493.291 78.2433 494.986 76.5956 496.649 75.1797C498.573 73.4305 500.963 71.6083 503.808 69.7119L503.819 69.7041C506.751 67.807 509.646 66.1651 512.502 64.7803L512.513 64.7754C515.45 63.3931 517.918 62.6319 519.851 62.6318C520.457 62.6318 521.026 62.6711 521.447 62.8115L522.585 63.1904L522.007 64.2422L522.006 64.2441C522.006 64.2441 522.003 64.249 522.001 64.252C521.997 64.2586 521.992 64.2691 521.984 64.2822C521.97 64.3088 521.948 64.3486 521.919 64.4014C521.86 64.508 521.773 64.6687 521.655 64.8818C521.421 65.3085 521.068 65.9485 520.599 66.8018C519.66 68.5079 518.466 70.684 517.016 73.3291C515.656 75.9638 514.211 78.8111 512.681 81.8711C511.242 84.9181 509.975 87.8352 508.877 90.6221L508.873 90.6318C507.776 93.332 507.077 95.524 506.753 97.2236C506.503 98.5541 506.387 99.641 506.387 100.496C506.387 101.759 506.629 102.345 506.84 102.579C507.178 102.847 507.497 102.952 507.818 102.952C508.925 102.952 510.233 102.396 511.76 101.03C513.399 99.5546 515.014 97.6952 516.601 95.4404C518.198 93.1711 519.67 90.7738 521.017 88.249L521.021 88.2393C522.454 85.6276 523.584 83.1973 524.417 80.9482L524.658 80.2959H525.354C525.935 80.2959 526.542 80.3982 527.036 80.7373C528.51 77.716 530.329 74.7981 532.489 71.9834C535.373 68.2264 538.702 65.1565 542.479 62.7852C546.294 60.3896 550.317 59.1759 554.53 59.1758C556.597 59.1758 558.582 59.5342 560.479 60.251C562.427 60.9004 564.138 62.0119 565.605 63.5645C566.37 64.3287 566.795 65.2594 566.795 66.3203C566.795 67.1587 566.425 67.8645 565.779 68.3809C565.041 68.9712 564.138 69.0486 563.248 68.8262L562.704 68.6904L562.536 68.1553C562.114 66.812 561.481 65.8901 560.686 65.2979C559.892 64.7069 558.845 64.376 557.475 64.376C556.233 64.3761 554.726 64.7808 552.93 65.6787C550.751 66.811 548.362 68.6545 545.766 71.251C543.253 73.7639 540.859 76.661 538.585 79.9453C536.4 83.1386 534.598 86.3677 533.175 89.6318C531.762 92.8729 531.083 95.7646 531.083 98.3203C531.083 99.6299 531.336 100.43 531.68 100.884C531.984 101.285 532.456 101.544 533.282 101.544C534.823 101.544 536.513 100.811 538.368 99.1172L538.384 99.1035C540.357 97.3767 542.223 95.225 543.975 92.6387L543.979 92.6338C545.843 89.9224 547.535 87.2554 549.058 84.6338C550.591 81.9938 551.778 79.8742 552.622 78.2705L552.627 78.2598L552.633 78.25C553.925 75.924 555.141 73.9682 556.28 72.3906C557.595 70.5709 559.488 69.6721 561.826 69.6719C562.857 69.6719 563.884 69.8124 564.905 70.0908C565.695 70.3063 566.531 70.3457 567.422 70.1973L570.5 69.6846L568.294 71.8906C565.809 74.3754 563.604 77.3246 561.684 80.7451L561.342 81.3906C559.658 84.6152 558.348 87.7945 557.408 90.9277L557.406 90.9336C556.398 94.2097 555.915 96.9207 555.915 99.0879C555.915 100.288 556.121 101.014 556.387 101.413C556.605 101.741 556.913 101.928 557.475 101.928C558.454 101.928 559.664 101.372 561.119 99.917L561.139 99.8975C562.688 98.43 564.173 96.5789 565.588 94.3311L565.594 94.3232C567.116 91.9552 568.51 89.5884 569.777 87.2236C571.047 84.7679 572.057 82.6618 572.812 80.9023L573.071 80.2959H573.73C574.209 80.2959 574.671 80.3426 575.07 80.4756L575.069 80.4766C575.224 80.523 575.366 80.5882 575.492 80.6729C575.51 80.6234 575.527 80.5743 575.547 80.5273L575.555 80.5068L575.564 80.4863C576.224 79.0843 577.106 76.8198 578.214 73.668C579.318 70.4401 580.466 66.8701 581.657 62.957C582.841 59.0659 583.726 55.3947 584.315 51.9434L584.317 51.9355L584.318 51.9277C584.594 50.4573 585.128 49.2273 586.043 48.4219C586.854 47.6262 587.806 47.1437 588.886 47.1436C590.362 47.1436 591.634 47.8909 592.694 49.1318C593.861 50.4043 594.365 52.1784 594.365 54.2881C594.365 56.887 593.572 59.1602 591.97 61.0557C591.004 62.2624 589.879 63.4197 588.602 64.5322C588.67 64.5385 588.738 64.5455 588.807 64.5518H591.829C595.797 64.5518 599.723 64.2983 603.604 63.792L604.422 63.6855L604.683 64.4678C604.858 64.9942 604.989 65.508 604.989 65.9355C604.989 67.2187 604.602 68.7497 603.909 70.4902C603.3 72.2296 602.645 73.8056 601.94 75.2148C601.583 76.0143 600.897 77.4283 599.892 79.4395L599.888 79.4473L599.884 79.4541C598.868 81.4007 597.766 83.6492 596.576 86.1992L596.57 86.2109C595.394 88.6482 594.386 91.0827 593.547 93.5146C592.799 95.8431 592.445 97.7794 592.445 99.3438C592.445 100.353 592.644 100.927 592.878 101.23C593.073 101.485 593.387 101.672 594.006 101.672C594.457 101.672 595.198 101.391 596.278 100.494C597.328 99.6228 598.566 98.2809 599.994 96.4336C602.83 92.6799 605.694 87.5108 608.577 80.8965L608.839 80.2959H609.493C610.055 80.2959 610.642 80.3918 611.127 80.7051C612.824 77.2127 614.536 73.8396 616.264 70.5869L616.268 70.5781L616.272 70.5703C617.984 67.4897 619.441 65.265 620.638 63.9756L620.64 63.9736C622.047 62.4656 623.904 61.7364 626.106 61.7363C626.893 61.7363 627.703 61.8801 628.53 62.1494C629.218 62.3001 629.904 62.3759 630.587 62.376C631.068 62.376 631.322 62.332 631.422 62.2988L632.234 64.1162C631.259 64.6738 629.835 66.2006 627.955 68.9346L627.95 68.9404L627.946 68.9463C626.094 71.557 624.192 74.5986 622.243 78.0732C621.868 78.7412 621.502 79.4016 621.143 80.0537C622.753 78.356 624.491 76.7242 626.354 75.1582C628.222 73.5454 630.175 71.8041 632.215 69.9346C634.379 67.9434 636.51 66.246 638.607 64.8477C640.729 63.4333 642.719 62.6321 644.538 62.6318C644.856 62.6318 645.142 62.643 645.385 62.6699C645.582 62.6919 645.841 62.7352 646.077 62.8398L646.078 62.8379C647.01 63.2302 647.784 63.7769 648.322 64.5137C648.867 65.2596 649.123 66.134 649.123 67.0879C649.123 67.8069 648.841 68.7227 648.416 69.748L648.417 69.749C647.287 72.7051 645.811 75.7373 643.998 78.8467L643.999 78.8477C643.81 79.179 643.621 79.5113 643.434 79.8438C645.03 78.1211 646.63 76.5603 648.234 75.165C650.161 73.4159 652.592 71.5958 655.516 69.7041C658.448 67.807 661.342 66.1651 664.198 64.7803C667.055 63.3953 669.483 62.6319 671.419 62.6318C672.025 62.6319 672.593 62.6712 673.015 62.8115L674.153 63.1904L673.575 64.2422L673.569 64.252C673.566 64.2586 673.56 64.269 673.553 64.2822C673.538 64.3089 673.515 64.3484 673.486 64.4014C673.428 64.508 673.34 64.6686 673.223 64.8818C672.988 65.3085 672.636 65.9486 672.167 66.8018L672.161 66.8115L672.156 66.8213C671.226 68.4275 670.038 70.5917 668.59 73.3174L668.589 73.3164C667.231 75.947 665.831 78.7919 664.387 81.8506L664.382 81.8604C662.938 84.833 661.623 87.7195 660.436 90.5186C659.343 93.2096 658.646 95.4382 658.322 97.2188L658.318 97.2422L658.312 97.2646C658.07 98.3152 657.954 99.2634 657.954 100.112C657.954 100.741 658.015 101.206 658.108 101.533C658.202 101.861 658.31 101.988 658.362 102.031C658.717 102.326 659.051 102.439 659.387 102.439C660.785 102.439 662.222 101.852 663.712 100.519L663.722 100.51L663.73 100.502C665.363 99.1144 666.972 97.3446 668.555 95.1807C670.146 92.9191 671.571 90.5314 672.828 88.0166L672.84 87.9932C674.194 85.4545 675.333 83.0925 676.258 80.9062L676.516 80.2959H677.179C677.754 80.2959 678.355 80.3963 678.846 80.7275C680.319 77.7098 682.136 74.795 684.294 71.9834C687.177 68.2263 690.508 65.1565 694.284 62.7852C698.099 60.3896 702.122 59.1759 706.336 59.1758C708.403 59.1758 710.387 59.5343 712.283 60.251C714.231 60.9004 715.943 62.012 717.41 63.5645C718.174 64.3287 718.6 65.2594 718.6 66.3203C718.599 67.1587 718.229 67.8645 717.584 68.3809C716.846 68.971 715.943 69.0486 715.053 68.8262L714.51 68.6904L714.342 68.1553C713.919 66.8119 713.286 65.8901 712.49 65.2979C711.697 64.707 710.65 64.376 709.279 64.376C708.039 64.3761 706.535 64.7787 704.742 65.6738C702.561 66.8057 700.17 68.6513 697.57 71.251C695.057 73.7639 692.663 76.6611 690.39 79.9453C688.205 83.1386 686.403 86.3678 684.98 89.6318C683.568 92.873 682.888 95.7646 682.888 98.3203C682.888 99.6298 683.141 100.43 683.484 100.884C683.789 101.285 684.262 101.544 685.088 101.544C686.628 101.544 688.318 100.81 690.173 99.1172L690.181 99.1104L690.189 99.1035C692.163 97.3767 694.027 95.2249 695.779 92.6387L695.783 92.6338C697.647 89.9225 699.34 87.2553 700.862 84.6338C702.395 81.9938 703.583 79.8742 704.427 78.2705L704.432 78.2598L704.438 78.25C705.73 75.924 706.946 73.9682 708.085 72.3906C709.399 70.5708 711.293 69.672 713.632 69.6719C714.662 69.6719 715.69 69.8124 716.711 70.0908C717.501 70.3062 718.336 70.3457 719.228 70.1973L722.305 69.6846L720.099 71.8906C717.614 74.3755 715.409 77.3246 713.488 80.7451L713.146 81.3906C711.463 84.6151 710.154 87.7945 709.214 90.9277L709.211 90.9336C708.203 94.2097 707.72 96.9207 707.72 99.0879C707.72 100.288 707.925 101.014 708.191 101.413C708.41 101.741 708.718 101.928 709.279 101.928C710.259 101.928 711.47 101.372 712.925 99.917L712.934 99.9072L712.943 99.8975C714.492 98.4299 715.978 96.5791 717.394 94.3311L717.398 94.3232C718.921 91.9552 720.315 89.5885 721.582 87.2236C722.852 84.7679 723.862 82.6618 724.616 80.9023L724.876 80.2959H725.535C726.014 80.2959 726.477 80.3425 726.876 80.4756L726.875 80.4766C727.317 80.6093 727.645 80.9114 727.838 81.2969C728.021 81.663 728.071 82.0734 728.071 82.4482V82.5713L728.042 82.6904C727.93 83.1373 727.722 83.592 727.453 84.0498C727.292 84.373 727 84.9961 726.574 85.9336L726.566 85.9502L726.558 85.9668C725.872 87.3385 724.931 89.1786 723.735 91.4844C722.521 93.8267 721.092 96.2069 719.451 98.625L719.446 98.6328L719.441 98.6396C717.779 101.002 715.976 103.028 714.029 104.709C712.01 106.452 709.823 107.384 707.487 107.384C705.323 107.384 703.367 106.767 701.654 105.53L701.643 105.522L701.632 105.515C699.785 104.102 699.063 101.407 699.063 97.9355C699.063 96.7358 699.122 95.5878 699.236 94.4922C699.101 94.6804 698.966 94.8741 698.824 95.0684C697.436 96.977 695.876 98.8384 694.148 100.654C692.484 102.494 690.722 104.039 688.86 105.282C687.044 106.553 685.226 107.256 683.424 107.256C680.849 107.256 678.762 106.09 677.227 103.883L677.221 103.875L677.216 103.866C675.711 101.609 675 98.7542 675 95.376C675 94.3126 675.072 93.2299 675.215 92.1279C674.02 94.3448 672.685 96.4775 671.204 98.5225C669.362 101.066 667.333 103.188 665.111 104.876C662.819 106.618 660.306 107.512 657.595 107.512C655.564 107.512 653.652 106.83 651.882 105.525L651.871 105.518L651.86 105.509C649.957 104.028 649.171 101.412 649.171 98.0635C649.171 94.4055 650.019 90.7641 651.695 87.1475L651.699 87.1387L651.704 87.1299C653.42 83.6118 655.182 80.387 656.99 77.458C657.824 76.0396 658.131 75.0838 658.131 74.5117C658.131 74.1541 658.041 74.0697 658.039 74.0674C658.033 74.0615 657.945 73.9756 657.595 73.9756C657.016 73.9757 656.019 74.2864 654.518 75.1182L654.26 75.2744C652.946 76.0932 651.262 77.4735 649.199 79.457L649.19 79.4658C647.872 80.7023 646.282 82.4543 644.42 84.7393L644.421 84.7402C642.644 86.9406 640.821 89.3558 638.954 91.9863C637.099 94.601 635.5 97.1681 634.157 99.6865C632.818 102.198 631.964 104.37 631.563 106.212L631.393 107H630.587C628.992 107 627.672 106.339 626.715 105.063L626.703 105.049L626.692 105.033C625.8 103.744 625.362 102.262 625.362 100.624V99.8555C625.362 99.5119 625.417 99.149 625.507 98.7764C625.946 96.0676 626.653 93.7469 627.652 91.8398C628.586 89.9715 629.648 87.8051 630.838 85.3408L630.848 85.3213L630.858 85.3018C631.454 84.1951 632.135 82.9168 632.902 81.4678C633.66 79.9526 634.331 78.524 634.918 77.1826C635.488 75.7927 635.73 74.7454 635.73 74C635.73 73.8681 635.717 73.7776 635.704 73.7197C635.22 73.7208 634.393 73.9833 633.149 74.7295C632.016 75.4605 630.918 76.3153 629.856 77.2949L629.841 77.3096L629.824 77.3232C628.731 78.2487 627.887 78.965 627.293 79.4736C625.208 81.4775 622.643 84.3783 619.592 88.1924C616.664 91.9596 613.414 97.3536 609.847 104.403L609.84 104.417L609.832 104.431C609.257 105.484 608.506 106.309 607.514 106.681L607.46 106.7L607.405 106.714C606.597 106.916 605.428 107 603.963 107H601.729C601.188 107.074 600.631 107.247 600.058 107.534L597.298 108.914L598.724 106.178C599.517 104.655 600.299 103.132 601.071 101.609C600.078 102.711 599.045 103.707 597.971 104.595L597.96 104.604L597.95 104.611C595.843 106.261 593.582 107.128 591.189 107.128C589.288 107.128 587.455 106.373 585.706 104.993L585.693 104.983L585.682 104.973C583.754 103.349 582.894 100.836 582.894 97.6797C582.894 94.9052 583.431 92.219 584.502 89.6279C585.542 87.0274 586.714 84.5947 588.02 82.332C589.302 80.1099 590.457 78.1423 591.484 76.4297C592.488 74.7567 592.878 73.5876 592.878 72.8477C592.878 72.314 592.715 71.8908 592.393 71.5264C592.052 71.1418 591.486 70.7712 590.605 70.4648L590.592 70.46C588.99 69.8777 586.863 69.5148 584.179 69.3955C582.772 72.9867 581.706 75.6733 580.979 77.4502C580.212 79.3253 579.487 81.1153 578.806 82.8193L578.555 83.4482H577.878C577.302 83.4482 576.645 83.3721 576.129 83.043C576.012 83.3758 575.847 83.712 575.648 84.0498C575.487 84.373 575.195 84.9958 574.769 85.9336L574.753 85.9668C574.067 87.3385 573.126 89.1786 571.931 91.4844C570.716 93.8267 569.287 96.2069 567.646 98.625L567.642 98.6328L567.637 98.6396C565.975 101.002 564.172 103.028 562.225 104.709C560.206 106.452 558.019 107.384 555.683 107.384C553.518 107.384 551.561 106.767 549.849 105.53L549.827 105.515C547.981 104.102 547.259 101.407 547.259 97.9355C547.259 96.7358 547.317 95.5878 547.432 94.4922C547.296 94.6805 547.161 94.874 547.02 95.0684C545.627 96.9835 544.062 98.8521 542.327 100.674L542.326 100.673C540.667 102.504 538.91 104.043 537.055 105.282L537.056 105.283C535.24 106.554 533.421 107.256 531.618 107.256C529.044 107.256 526.957 106.089 525.422 103.883L525.416 103.875L525.41 103.866C523.906 101.609 523.194 98.754 523.194 95.376C523.194 94.2976 523.269 93.1992 523.416 92.0811C522.215 94.3147 520.872 96.4632 519.381 98.5225C517.539 101.066 515.51 103.188 513.288 104.876C511.003 106.613 508.533 107.512 505.898 107.512C503.949 107.512 502.009 106.827 500.096 105.552C497.911 104.095 496.963 101.517 496.963 98.1924C496.963 97.1943 497.054 96.1584 497.232 95.0869C497.413 93.9192 497.724 92.6345 498.16 91.2373C498.701 89.4385 499.59 87.4916 500.81 85.4014C502.009 83.2603 503.547 80.6116 505.423 77.457C506.256 76.0392 506.562 75.0836 506.562 74.5117C506.562 74.1622 506.478 74.0734 506.472 74.0674C506.466 74.0616 506.377 73.9756 506.026 73.9756C505.454 73.9758 504.497 74.2832 503.077 75.1182C501.728 75.912 499.96 77.3415 497.76 79.457C495.671 81.4618 493.056 84.411 489.91 88.3223C486.814 92.1715 483.479 97.6078 479.911 104.659L479.905 104.671L479.899 104.682C479.246 105.895 478.34 106.854 477.081 106.994L477.026 107H476.971C476.328 107 475.425 107.04 474.252 107.123C473.477 107.209 472.702 107.251 471.927 107.254C471.339 107.325 470.902 107.515 470.57 107.792L469.032 106.585C472.615 99.2489 476.326 91.5708 480.165 83.5518L480.167 83.5479C484.094 75.4375 488.106 67.2844 492.204 59.0889C496.304 50.8883 500.363 43.0707 504.379 35.6367L504.389 35.6191C505.854 33.0337 507.209 30.9729 508.455 29.46L508.477 29.4346C509.959 27.755 511.903 26.92 514.219 26.9199C515.092 26.9199 516.074 27.0651 517.149 27.334C518.05 27.5591 518.888 27.5908 519.672 27.4482L522.628 26.9102L520.583 29.1123ZM90.542 107.147L89.832 107.152L90.5654 107.147C90.7624 107.145 90.9586 107.139 91.1543 107.135C90.9509 107.14 90.7468 107.145 90.542 107.147ZM469.931 107.024L472.643 101.456C472.894 100.938 473.146 100.419 473.398 99.8975L469.931 107.024ZM23.0156 90.3604C20.2399 90.3604 18.233 91.1843 16.8447 92.7188L16.8369 92.7275L16.8281 92.7363C15.3637 94.2779 14.672 95.9584 14.6719 97.8076C14.6719 100.23 15.5978 102.209 17.5 103.813L17.8848 104.109C19.8584 105.544 22.5774 106.383 26.1309 106.537H26.1387L26.1465 106.538C30.3366 106.785 34.4034 106.046 38.3584 104.315C41.8334 102.755 44.777 101.112 47.2021 99.3975C42.6532 97.2037 38.4171 95.183 34.4941 93.3369L34.4873 93.333C30.3181 91.3319 26.4982 90.3604 23.0156 90.3604ZM107.371 26.4619C106.492 27.8981 105.67 29.2764 104.905 30.5967L104.899 30.6074L104.893 30.6172C103.955 32.1509 103.14 33.4361 102.45 34.4717L102.451 34.4727C100.668 37.2752 98.4981 40.8489 95.9414 45.1953L95.9375 45.2021C93.3736 49.4753 90.5107 54.1318 87.3506 59.1709C84.1869 64.2157 80.8953 69.2606 77.4756 74.3047C74.0503 79.3569 70.5794 84.1114 67.0654 88.5684L67.0664 88.5693C64 92.4789 60.9917 95.8524 58.043 98.6865C62.1608 100.615 66.6647 102.309 71.5566 103.762C76.9081 105.35 82.997 106.152 89.832 106.152C97.5426 106.152 104.196 104.56 109.824 101.415C115.473 98.173 119.863 93.8194 123.013 88.3486C126.16 82.7966 127.743 76.5283 127.743 69.5195C127.743 60.3638 125.812 52.0751 121.967 44.6348L121.965 44.6309C118.28 37.4211 113.415 31.369 107.371 26.4619ZM251.228 97.126L251.216 97.1553C250.918 97.8995 250.775 98.6273 250.775 99.3438C250.775 100.454 251.148 101.409 251.921 102.252C252.577 102.968 253.604 103.418 255.167 103.46C254.2 102.598 253.359 101.621 252.649 100.529L252.63 100.498C251.989 99.4291 251.535 98.2739 251.262 97.0391C251.251 97.0681 251.238 97.0969 251.228 97.126ZM251.558 103.288C251.577 103.305 251.598 103.32 251.618 103.336C251.594 103.316 251.569 103.297 251.546 103.277L251.558 103.288ZM108.688 103.14C108.58 103.193 108.471 103.245 108.361 103.297C108.459 103.25 108.556 103.205 108.653 103.157L108.688 103.14ZM511.608 102.451C511.68 102.397 511.752 102.343 511.823 102.286L511.842 102.271C511.764 102.333 511.686 102.393 511.608 102.451ZM707.53 102.193C707.533 102.197 707.537 102.2 707.54 102.204C707.535 102.198 707.53 102.193 707.524 102.187L707.53 102.193ZM263.388 68.6348C262.534 70.0709 261.664 71.6229 260.781 73.2939L260.782 73.2949C259.245 76.3701 257.749 79.318 256.297 82.1377C255.106 84.4498 253.991 86.4308 252.958 88.0781C253.469 88.3806 253.896 88.8116 254.222 89.3652C254.776 90.3082 255 91.5364 255 92.9443C255 94.8329 255.431 96.6429 256.302 98.3848C257.048 99.8772 258.386 101.077 260.436 101.941C262.255 100.779 263.693 99.0666 264.736 96.7559L264.739 96.75L264.742 96.7432C265.962 94.14 266.567 91.4684 266.567 88.7197C266.567 86.4025 266.319 84.0385 265.82 81.627C265.311 79.1654 264.759 76.7458 264.165 74.3701L264.161 74.3535L264.158 74.3379C263.715 72.2675 263.456 70.3646 263.388 68.6348ZM706.76 99.9883C706.765 100.047 706.774 100.105 706.781 100.162C706.773 100.096 706.764 100.03 706.758 99.9619L706.76 99.9883ZM548.267 98.5625C548.278 98.9615 548.301 99.3433 548.334 99.708C548.285 99.1565 548.259 98.5655 548.259 97.9355L548.267 98.5625ZM255.796 99.5137C255.822 99.5537 255.849 99.5923 255.876 99.6318C255.845 99.5856 255.813 99.54 255.783 99.4932L255.796 99.5137ZM657.171 97.8564C657.136 98.0503 657.107 98.2415 657.08 98.4297C657.109 98.2254 657.142 98.0176 657.181 97.8066L657.171 97.8564ZM244.172 97.5518C244.188 97.5293 244.204 97.5059 244.22 97.4834C244.222 97.499 244.225 97.5146 244.228 97.5303C244.225 97.514 244.223 97.4977 244.221 97.4814C244.204 97.5046 244.189 97.5286 244.172 97.5518ZM149.731 96.4219C149.743 96.6384 149.759 96.8525 149.779 97.0645C149.758 96.8446 149.742 96.6223 149.73 96.3975L149.731 96.4219ZM548.454 94.3242C548.451 94.3553 548.449 94.3868 548.445 94.418C548.467 94.2235 548.489 94.0306 548.515 93.8398L548.454 94.3242ZM244.694 93.0605C244.608 93.2016 244.52 93.3416 244.433 93.4814C244.519 93.3427 244.607 93.2044 244.693 93.0645C244.699 93.0488 244.704 93.0332 244.71 93.0176C244.705 93.0319 244.699 93.0462 244.694 93.0605ZM721.329 89.7529C721.379 89.6644 721.431 89.5768 721.48 89.4883L721.543 89.376C721.472 89.5018 721.4 89.6271 721.329 89.7529ZM652.603 87.5684C652.501 87.7869 652.403 88.0051 652.308 88.2236C652.12 88.6561 651.945 89.089 651.782 89.5215C652.028 88.8705 652.301 88.2193 652.603 87.5684ZM365.85 87.5039C365.858 87.6655 365.872 87.8262 365.883 87.9863C365.87 87.8075 365.857 87.6279 365.848 87.4473L365.85 87.5039ZM594.806 87.6318C594.766 87.7198 594.728 87.8085 594.689 87.8965C594.746 87.77 594.801 87.6431 594.858 87.5166L594.806 87.6318ZM187.161 86.4062L186.575 87.5684C186.893 86.9324 187.22 86.2871 187.557 85.6328C187.423 85.8921 187.292 86.1499 187.161 86.4062ZM616.709 86.2783L616.123 87.4404C616.423 86.8414 616.731 86.2344 617.047 85.6191C616.933 85.8401 616.82 86.0595 616.709 86.2783ZM308.812 86.6641C308.68 86.9027 308.554 87.1393 308.432 87.373C308.683 86.8936 308.954 86.404 309.245 85.9043L308.812 86.6641ZM501.242 86.6641C501.11 86.9027 500.984 87.1392 500.861 87.373C501.112 86.8936 501.383 86.404 501.675 85.9043L501.242 86.6641ZM588.886 82.832C588.726 83.1094 588.567 83.3892 588.411 83.6719C588.258 83.9497 588.107 84.2307 587.958 84.5137C588.26 83.9427 588.568 83.382 588.886 82.832ZM170.959 64.1201C170.657 64.1202 170.204 64.2246 169.571 64.5312C168.947 64.8339 168.205 65.3049 167.341 65.9629C165.644 67.2561 163.484 69.4879 160.854 72.7119C159.263 74.7221 157.753 76.9029 156.325 79.2549C155.483 80.642 154.79 81.8082 154.241 82.7539C155.243 82.5571 156.524 82.2308 158.1 81.7539C160.785 80.8586 163.228 79.477 165.432 77.6025C167.571 75.71 169.197 73.6716 170.327 71.4912C171.487 69.1679 172.007 67.3296 172.007 65.9355C172.007 65.0886 171.847 64.634 171.686 64.4121C171.567 64.2496 171.385 64.1202 170.959 64.1201ZM492.075 81.04L491.404 81.7822C491.198 82.0131 490.993 82.2462 490.788 82.4805C491.215 81.993 491.644 81.5127 492.075 81.04ZM577.21 82.3936C577.337 82.417 577.477 82.4345 577.632 82.4424L577.878 82.4482C577.624 82.4482 577.402 82.4289 577.21 82.3936ZM656.598 80.0576C656.59 80.0702 656.584 80.0831 656.576 80.0957C656.777 79.7502 656.978 79.4082 657.181 79.0703L656.598 80.0576ZM648.891 75.9199L648.154 76.5723C647.926 76.778 647.699 76.9876 647.471 77.2002C647.944 76.7587 648.417 76.3316 648.891 75.9199ZM315.105 74.8975C315.108 74.88 315.111 74.8629 315.113 74.8457L315.114 74.8359C315.112 74.8564 315.108 74.8767 315.105 74.8975ZM659.104 74.8975C659.106 74.88 659.109 74.8629 659.111 74.8457L659.112 74.8359C659.11 74.8564 659.106 74.8767 659.104 74.8975ZM367.172 74.5459C367.148 74.6405 367.126 74.7355 367.104 74.8301C367.13 74.7191 367.157 74.608 367.185 74.4971L367.172 74.5459ZM309.579 74.6064C309.536 74.6344 309.494 74.6644 309.451 74.6934C309.592 74.5989 309.729 74.5079 309.864 74.4238L309.579 74.6064ZM684.566 73.2822C684.409 73.4939 684.254 73.7061 684.101 73.9189C684.421 73.4741 684.75 73.0317 685.088 72.5918L684.566 73.2822ZM151.315 71.457C151.668 71.0155 152.03 70.5837 152.399 70.1602C152.218 70.3682 152.038 70.5777 151.86 70.79C151.677 71.0101 151.495 71.2323 151.315 71.457ZM656.059 70.5439L654.994 71.2441C654.681 71.4538 654.374 71.6627 654.074 71.8701C654.707 71.433 655.368 70.9908 656.059 70.5439ZM310.315 71.6504C310.836 71.2853 311.375 70.9158 311.933 70.5439L310.898 71.2441C310.701 71.3797 310.507 71.5158 310.315 71.6504ZM502.745 71.6504C503.266 71.2852 503.805 70.9159 504.363 70.5439L503.328 71.2441C503.131 71.3797 502.937 71.5158 502.745 71.6504ZM300.669 59.5361C299.645 61.5841 298.626 63.6292 297.612 65.6719C296.707 67.497 295.807 69.3207 294.91 71.1416C296.811 67.2828 298.73 63.4141 300.669 59.5361ZM176.425 67.2578C176.413 67.3844 176.399 67.5117 176.382 67.6396C176.418 67.3736 176.441 67.1105 176.453 66.8506L176.425 67.2578ZM663.576 66.2041C663.254 66.3672 662.931 66.5344 662.607 66.7041C663.286 66.3483 663.961 66.0062 664.635 65.6797L663.576 66.2041ZM166.043 65.7236C166.014 65.7479 165.986 65.7732 165.957 65.7979C165.993 65.7668 166.029 65.7355 166.065 65.7051L166.043 65.7236ZM542.327 64.0723C541.893 64.3593 541.465 64.6571 541.043 64.9639C541.685 64.4974 542.34 64.0528 543.011 63.6318L542.327 64.0723ZM32.333 62.9199C32.786 62.9519 33.2443 62.9737 33.708 62.9844L33.0156 62.96C32.7868 62.9493 32.5592 62.9359 32.333 62.9199ZM278.633 57.8018C278.668 57.7073 278.69 57.6018 278.699 57.4844L278.686 57.5996C278.674 57.6722 278.656 57.7393 278.633 57.8018ZM274.29 57.4141C274.254 57.4063 274.219 57.3977 274.184 57.3916L274.161 57.3887C274.203 57.3956 274.246 57.4046 274.29 57.4141ZM457.448 54.416C458.324 54.9572 459.153 55.5055 459.937 56.0615C459.416 55.6918 458.874 55.3251 458.312 54.9619L457.448 54.416ZM244.812 42.9199C246.242 42.9199 247.508 43.3879 248.553 44.3281C249.626 45.2943 250.163 46.5507 250.163 48.0156C250.163 49.8446 249.441 51.4577 248.079 52.8193C246.706 54.1926 245.046 54.9043 243.147 54.9043C241.749 54.9042 240.519 54.3536 239.496 53.3311L239.478 53.3125L239.46 53.293C238.52 52.2481 238.052 50.9823 238.052 49.5518C238.052 47.7874 238.793 46.252 240.163 44.9795C241.506 43.6473 243.063 42.92 244.812 42.9199ZM312.829 36.1123L311.322 38.9141C310.888 39.7258 310.455 40.5426 310.02 41.3633C310.958 39.5922 311.895 37.8417 312.829 36.1123ZM315.937 31.207C315.931 31.2144 315.926 31.2221 315.921 31.2295C316.063 31.0347 316.203 30.8465 316.343 30.666L315.937 31.207ZM473.744 26.6318C473.608 26.7285 473.47 26.8244 473.33 26.9199C473.62 26.7218 473.903 26.5214 474.178 26.3184L473.744 26.6318ZM417.546 26.7061C417.55 26.7592 417.557 26.8121 417.562 26.8652C417.557 26.8033 417.549 26.7416 417.544 26.6797L417.546 26.7061ZM472.176 25.0166C472.147 25.0493 472.116 25.0802 472.087 25.1123C472.203 24.9855 472.317 24.8556 472.424 24.7197L472.176 25.0166ZM249.831 87.8604C249.813 87.8969 249.795 87.9331 249.777 87.9697C249.781 87.963 249.784 87.956 249.788 87.9492C249.802 87.9195 249.817 87.89 249.831 87.8604ZM114.47 14.2344L113.888 15.0322C113.75 15.2229 113.612 15.4154 113.474 15.6094C113.808 15.1414 114.14 14.6829 114.47 14.2344Z" fill="#020D19"/>
</g>
<defs>
<filter id="filter0_d_0_1" x="0.351562" y="0.295898" width="731.72" height="126.48" filterUnits="userSpaceOnUse" color-interpolation-filters="sRGB">
<feFlood flood-opacity="0" result="BackgroundImageFix"/>
<feColorMatrix in="SourceAlpha" type="matrix" values="0 0 0 0 0 0 0 0 0 0 0 0 0 0 0 0 0 0 127 0" result="hardAlpha"/>
<feOffset dy="4"/>
<feGaussianBlur stdDeviation="2"/>
<feComposite in2="hardAlpha" operator="out"/>
<feColorMatrix type="matrix" values="0 0 0 0 0 0 0 0 0 0 0 0 0 0 0 0 0 0 0.25 0"/>
<feBlend mode="normal" in2="BackgroundImageFix" result="effect1_dropShadow_0_1"/>
<feBlend mode="normal" in="SourceGraphic" in2="effect1_dropShadow_0_1" result="shape"/>
</filter>
</defs>
</svg>
