<svg xmlns="http://www.w3.org/2000/svg" viewBox="0 25.100000381469727 27.299999237060547 33.35000228881836" data-asc="0.8" width="27.299999237060547" height="33.35000228881836"><defs/><g fill="#000000"><g transform="translate(0, 0)"><path d="M2.80 58.35Q2.20 58.20 1.75 58.05Q0.80 57.55 0.40 56.92Q0 56.30 0 55.60Q0 54.45 0.78 53.13Q1.55 51.80 2.80 50.40Q4.05 48.90 5.98 47.35Q7.90 45.80 10 44.38Q12.10 42.95 13.70 41.90Q14.55 40.15 15.48 38.15Q16.40 36.15 17.25 34.27Q18.10 32.40 18.73 30.85Q19.35 29.30 19.65 28.45Q18.85 29.40 17.80 30.82Q16.75 32.25 15.50 33.83Q14.25 35.40 12.93 36.80Q11.60 38.20 10.20 39.08Q8.80 39.95 7.45 39.95Q5.45 39.95 4.68 38.92Q3.90 37.90 3.90 36.50Q3.90 35.50 4.18 34.50Q4.45 33.50 4.90 32.65Q5.20 32.05 5.85 31.05Q6.50 30.05 7.35 29Q8.20 27.95 9.08 27.25Q9.95 26.55 10.75 26.55Q11.70 26.55 12.20 27.23Q12.70 27.90 12.30 28.15Q11.50 28.70 10.33 29.82Q9.15 30.95 8 32.40Q7.70 32.80 7.28 33.65Q6.85 34.50 6.50 35.48Q6.15 36.45 6.15 37.25Q6.15 37.60 6.25 37.92Q6.35 38.25 6.60 38.40Q7.00 38.70 7.50 38.70Q8.20 38.70 9.08 38.25Q9.95 37.80 10.75 37.10Q13.55 34.40 15.75 31.45Q17.95 28.50 20.40 25.60Q20.55 25.10 21.25 25.10Q22.05 25.10 22.93 25.57Q23.80 26.05 23.65 26.35Q23.20 27.35 22.48 29Q21.75 30.65 20.90 32.55Q20.05 34.45 19.20 36.33Q18.35 38.20 17.65 39.70Q18.25 39.40 19.80 38.20Q21.35 37 23.20 35.27Q25.05 33.55 26.55 31.70Q26.85 31.40 27 31.40Q27.30 31.40 27.30 31.80Q27.30 32.15 27 32.60Q26.25 33.60 24.93 34.95Q23.60 36.30 22.08 37.67Q20.55 39.05 19.10 40.17Q17.65 41.30 16.60 41.90Q15.05 45.20 13.60 48.13Q12.15 51.05 10.95 52.85Q10.15 54.10 9 55.40Q7.85 56.70 6.50 57.58Q5.15 58.45 3.65 58.45Q3.45 58.45 3.25 58.42Q3.05 58.40 2.80 58.35M2.95 57.25Q3.35 57.25 3.93 57Q4.50 56.75 5.15 56.20Q7.05 54.65 8.35 52.58Q9.65 50.50 10.68 48.20Q11.70 45.90 12.75 43.80Q10.80 45.25 8.35 47.23Q5.90 49.20 3.90 51.15Q2.70 52.35 2.15 53.52Q1.60 54.70 1.60 55.60Q1.60 57.25 2.95 57.25Z"/></g></g></svg>