<svg xmlns="http://www.w3.org/2000/svg" viewBox="0 12.5 253.1999969482422 50" data-asc="1" width="253.1999969482422" height="50"><defs/><g fill="#fff0b3"><g transform="translate(0, 0)"><path d="M18.75 50.85Q16.75 50.85 15.28 50.02Q13.80 49.20 13.80 47.15Q13.80 45.85 14.45 44.25Q15.35 45.25 16.13 45.65Q16.90 46.05 17.80 46.05Q20.30 46.05 21.52 43.25Q22.75 40.45 22.75 37.05Q22.75 30.70 18 30.70Q16.65 30.70 15.70 30.85L11.60 50L4.40 50L11.20 18.20L18.60 17.20L16.25 28.30L16.55 28.30Q18.45 28.30 20.10 27.07Q21.75 25.85 22.75 23.97Q23.75 22.10 23.75 20.20Q23.75 17.90 22.13 16.35Q20.50 14.80 17.15 14.80Q14.10 14.80 11.20 16.17Q8.30 17.55 6.47 20.30Q4.65 23.05 4.65 26.95Q4.65 28.80 5 29.52Q5.35 30.25 5.35 30.35Q2.70 30.35 1.35 29.27Q0 28.20 0 25.75Q0 22.35 2.55 19.30Q5.10 16.25 9.30 14.38Q13.50 12.50 18.15 12.50Q21.65 12.50 24.05 13.60Q26.45 14.70 27.63 16.50Q28.80 18.30 28.80 20.45Q28.80 22.75 27.50 24.90Q26.20 27.05 23.80 28.40Q26.80 28.95 28.25 31.18Q29.70 33.40 29.70 36.45Q29.70 39.30 28.63 42.65Q27.55 46 25.07 48.42Q22.60 50.85 18.75 50.85ZM38.60 50.30Q34.90 50.30 32.85 48.38Q30.80 46.45 30.80 42.35Q30.80 38.90 32.15 34.75Q33.50 30.60 36.55 27.57Q39.60 24.55 44.30 24.55Q49.80 24.55 49.80 29.35Q49.80 32.15 48.20 34.50Q46.60 36.85 43.95 38.27Q41.30 39.70 38.30 39.90Q38.20 41.40 38.20 41.90Q38.20 44.35 39.05 45.23Q39.90 46.10 41.80 46.10Q44.50 46.10 46.43 44.85Q48.35 43.60 50.65 41.05L52.35 41.05Q46.80 50.30 38.60 50.30M38.70 37.50Q40.55 37.40 42.23 36.20Q43.90 35 44.93 33.15Q45.95 31.30 45.95 29.25Q45.95 27.20 44.70 27.20Q42.90 27.20 41.18 30.35Q39.45 33.50 38.70 37.50ZM58.45 62.50Q56.05 62.50 54.45 61.25Q52.85 60 52.85 57.65Q52.85 54.80 55.15 53.08Q57.45 51.35 61.00 50.20L61.60 47.50Q60.15 49.10 58.65 49.70Q57.15 50.30 55.60 50.30Q53.20 50.30 51.73 48.80Q50.25 47.30 50.25 44.30Q50.25 43.05 50.65 41.05L54.05 25L61.25 25L57.65 42Q57.50 42.60 57.50 43.25Q57.50 45.45 59.00 45.45Q60.30 45.45 61.30 44.33Q62.30 43.20 62.90 41.35L66.40 25L73.60 25L68.65 48.20Q71.05 47.40 72.50 45.80Q73.95 44.20 74.95 41.05L77.05 41.05Q75.70 45.50 73.40 47.58Q71.10 49.65 68.20 50.40L67.45 54Q66.45 58.85 64 60.67Q61.55 62.50 58.45 62.50M57.30 58.60Q58.15 58.60 58.95 57.45Q59.75 56.30 60.20 54.15L60.50 52.70Q55.60 54.50 55.60 56.95Q55.60 57.60 56.05 58.10Q56.50 58.60 57.30 58.60ZM82.25 50.20Q78.55 50.20 76.40 48.30Q74.25 46.40 74.25 42.30Q74.25 38.90 75.65 34.75Q77.05 30.60 80.15 27.57Q83.25 24.55 87.95 24.55Q94.35 24.55 94.35 32.55L94.35 32.60Q94.50 32.65 94.90 32.65Q96.55 32.65 98.70 31.77Q100.85 30.90 102.60 29.65L103.05 31Q101.60 32.55 99.28 33.63Q96.95 34.70 94.20 35.15Q93.80 39.70 92.15 43.10Q90.50 46.50 87.90 48.35Q85.30 50.20 82.25 50.20M84.25 45.70Q85.45 45.70 86.65 44.33Q87.85 42.95 88.75 40.58Q89.65 38.20 90.05 35.30Q88.70 35 88.70 33.20Q88.70 31.15 90.25 30.50Q90.15 28.85 89.75 28.22Q89.35 27.60 88.35 27.60Q86.70 27.60 85.15 30Q83.60 32.40 82.65 35.75Q81.70 39.10 81.70 41.65Q81.70 44.05 82.25 44.88Q82.80 45.70 84.25 45.70ZM114.95 50.30Q111.90 50.30 110.48 48.67Q109.05 47.05 109.05 44.65Q109.05 43.60 109.30 42.27Q109.55 40.95 109.83 39.70Q110.10 38.45 110.20 38.10Q110.60 36.35 110.95 34.65Q111.30 32.95 111.30 31.90Q111.30 29.35 109.50 29.35Q108.20 29.35 107.20 30.63Q106.20 31.90 105.60 33.95L102.20 50L95 50L100.30 25L107.50 25L106.95 27.60Q109.45 24.80 112.80 24.80Q115.35 24.80 116.85 26.20Q118.35 27.60 118.35 30.45Q118.35 31.90 118 33.67Q117.65 35.45 117 38Q116.60 39.55 116.28 41.02Q115.95 42.50 115.95 43.35Q115.95 44.35 116.40 44.90Q116.85 45.45 117.95 45.45Q119.45 45.45 120.35 44.38Q121.25 43.30 122.15 41.05L124.25 41.05Q122.40 46.55 119.98 48.42Q117.55 50.30 114.95 50.30ZM128.15 50.30Q125.30 50.30 123.40 48.35Q121.50 46.40 121.50 42.25Q121.50 38.55 122.98 34.48Q124.45 30.40 127.38 27.57Q130.30 24.75 134.35 24.75Q136.40 24.75 137.40 25.45Q138.40 26.15 138.40 27.30L138.40 27.50L140.85 16L148.25 15L142.50 42Q142.30 42.75 142.30 43.60Q142.30 44.60 142.78 45.02Q143.25 45.45 144.35 45.45Q145.75 45.45 146.78 44.25Q147.80 43.05 148.40 41.05L150.50 41.05Q147.45 50 140.45 50Q138.40 50 137.13 48.90Q135.85 47.80 135.55 45.70Q134.25 47.70 132.43 49Q130.60 50.30 128.15 50.30M131.40 45.45Q132.60 45.45 133.83 44.35Q135.05 43.25 135.50 41.30L135.50 41.05L137.95 29.60Q137.50 27.85 135.90 27.85Q133.90 27.85 132.30 30.17Q130.70 32.50 129.80 35.77Q128.90 39.05 128.90 41.55Q128.90 44.05 129.63 44.75Q130.35 45.45 131.40 45.45ZM171.15 50.80Q165.50 50.80 162.85 47.95Q160.20 45.10 160.20 38.50Q160.20 33.25 161.97 27.20Q163.75 21.15 167.68 16.82Q171.60 12.50 177.65 12.50Q181.40 12.50 183.70 14.15Q186 15.80 186 19.20Q186 21.35 185.15 22.57Q184.30 23.80 182.50 23.80Q180.70 23.80 179.65 22.50Q180.55 22.05 181.25 20.70Q181.95 19.35 181.95 17.90Q181.95 16.55 181.22 15.70Q180.50 14.85 178.90 14.85Q176.25 14.85 173.85 18.47Q171.45 22.10 169.97 27.60Q168.50 33.10 168.50 38.20Q168.50 42 169.80 44Q171.10 46 174.50 46Q177.45 46 179.95 44.70Q182.45 43.40 184.25 41L185.40 41.50Q184.15 44.65 181.70 46.75Q179.25 48.85 176.45 49.83Q173.65 50.80 171.15 50.80ZM191.40 50.20Q187.70 50.20 185.55 48.30Q183.40 46.40 183.40 42.30Q183.40 38.90 184.80 34.75Q186.20 30.60 189.30 27.57Q192.40 24.55 197.10 24.55Q203.50 24.55 203.50 32.55L203.50 32.60Q203.65 32.65 204.05 32.65Q205.70 32.65 207.85 31.77Q210 30.90 211.75 29.65L212.20 31Q210.75 32.55 208.43 33.63Q206.10 34.70 203.35 35.15Q202.95 39.70 201.30 43.10Q199.65 46.50 197.05 48.35Q194.45 50.20 191.40 50.20M193.40 45.70Q194.60 45.70 195.80 44.33Q197 42.95 197.90 40.58Q198.80 38.20 199.20 35.30Q197.85 35 197.85 33.20Q197.85 31.15 199.40 30.50Q199.30 28.85 198.90 28.22Q198.50 27.60 197.50 27.60Q195.85 27.60 194.30 30Q192.75 32.40 191.80 35.75Q190.85 39.10 190.85 41.65Q190.85 44.05 191.40 44.88Q191.95 45.70 193.40 45.70ZM212.05 50.30Q209.20 50.30 207.30 48.35Q205.40 46.40 205.40 42.25Q205.40 38.55 206.88 34.48Q208.35 30.40 211.28 27.57Q214.20 24.75 218.25 24.75Q220.30 24.75 221.30 25.45Q222.30 26.15 222.30 27.30L222.30 27.50L224.75 16L232.15 15L226.40 42Q226.20 42.75 226.20 43.60Q226.20 44.60 226.68 45.02Q227.15 45.45 228.25 45.45Q229.65 45.45 230.68 44.25Q231.70 43.05 232.30 41.05L234.40 41.05Q231.35 50 224.35 50Q222.30 50 221.03 48.90Q219.75 47.80 219.45 45.70Q218.15 47.70 216.33 49Q214.50 50.30 212.05 50.30M215.30 45.45Q216.50 45.45 217.73 44.35Q218.95 43.25 219.40 41.30L219.40 41.05L221.85 29.60Q221.40 27.85 219.80 27.85Q217.80 27.85 216.20 30.17Q214.60 32.50 213.70 35.77Q212.80 39.05 212.80 41.55Q212.80 44.05 213.53 44.75Q214.25 45.45 215.30 45.45ZM239.45 50.30Q235.75 50.30 233.70 48.38Q231.65 46.45 231.65 42.35Q231.65 38.90 233 34.75Q234.35 30.60 237.40 27.57Q240.45 24.55 245.15 24.55Q250.65 24.55 250.65 29.35Q250.65 32.15 249.05 34.50Q247.45 36.85 244.80 38.27Q242.15 39.70 239.15 39.90Q239.05 41.40 239.05 41.90Q239.05 44.35 239.90 45.23Q240.75 46.10 242.65 46.10Q245.35 46.10 247.28 44.85Q249.20 43.60 251.50 41.05L253.20 41.05Q247.65 50.30 239.45 50.30M239.55 37.50Q241.40 37.40 243.08 36.20Q244.75 35 245.78 33.15Q246.80 31.30 246.80 29.25Q246.80 27.20 245.55 27.20Q243.75 27.20 242.03 30.35Q240.30 33.50 239.55 37.50Z"/></g></g></svg>