<svg xmlns="http://www.w3.org/2000/svg" viewBox="0 12.399999618530273 208 50.099998474121094" data-asc="1" width="208" height="50.099998474121094"><defs/><g fill="#fff0b3"><g transform="translate(0, 0)"><path d="M9.20 50.90Q4.65 50.90 2.33 48.40Q0 45.90 0 42.10Q0 39.40 1.13 36.67Q2.25 33.95 4.35 31.90Q6.45 29.85 9.25 29.15Q7.70 28.05 6.95 26.47Q6.20 24.90 6.20 23.15Q6.20 20.55 7.63 18.05Q9.05 15.55 11.58 13.98Q14.10 12.40 17.15 12.40Q20.30 12.40 22.30 14.05Q24.30 15.70 24.30 18.65Q24.30 20.85 23.20 22.35Q22.10 23.85 20.60 23.85Q19.25 23.85 18.25 22.50Q19.15 22.20 19.80 20.85Q20.45 19.50 20.45 18.15Q20.45 16.70 19.65 16.02Q18.85 15.35 17.70 15.35Q16.25 15.35 15.08 16.38Q13.90 17.40 13.25 19.02Q12.60 20.65 12.60 22.40Q12.60 24.80 13.85 26.63Q15.10 28.45 17.65 29.10Q15.10 29.65 13.05 31.60Q11.00 33.55 9.85 36.13Q8.70 38.70 8.70 41.05Q8.70 43.30 9.88 44.70Q11.05 46.10 13.45 46.10Q15.95 46.10 18.68 44.73Q21.40 43.35 22.70 41L23.85 41.50Q21.90 45.80 17.85 48.35Q13.80 50.90 9.20 50.90ZM40.60 50.30Q38.30 50.30 36.78 48.20Q35.25 46.10 34.50 41.60L27.60 50L24 50L34.10 38.60L33.30 33Q32.90 30.55 32.48 29.70Q32.05 28.85 31.40 28.85Q30.40 28.85 29.15 30.22Q27.90 31.60 26.73 34.38Q25.55 37.15 24.70 41.05L22.60 41.05Q24.05 34.25 26.93 29.50Q29.80 24.75 34.40 24.75Q37.10 24.75 38.33 26.52Q39.55 28.30 39.80 30.70L40.25 34.50Q42.40 32.10 43.45 30.38Q44.50 28.65 44.60 27.30Q43.90 27.40 43.75 27.40Q42.50 27.40 41.95 26.63Q41.40 25.85 41.40 24.60Q41.40 23.35 42.38 22.75Q43.35 22.15 44.80 22.15Q46.10 22.15 46.85 23.52Q47.60 24.90 47.60 26.70Q47.60 28.90 46.10 31.13Q44.60 33.35 40.65 37.60L41.10 41.10Q41.40 43.50 42.13 44.48Q42.85 45.45 44.20 45.45Q45.65 45.45 46.90 44.23Q48.15 43 48.70 41.05L50.80 41.05Q49 46.25 46.20 48.27Q43.40 50.30 40.60 50.30ZM52.50 23.15L59.70 23.15L58.90 26.90Q61.40 24.75 64.75 24.75Q67.55 24.75 69.20 26.60Q70.85 28.45 70.85 32.65Q70.85 36.60 69.70 40.63Q68.55 44.65 65.80 47.48Q63.05 50.30 58.55 50.30Q55.35 50.30 54.30 48.50L51.70 60.70L44.15 62.50L52.50 23.15M57 45.95Q59.40 45.95 60.98 43.70Q62.55 41.45 63.28 38.33Q64 35.20 64 32.50Q64 28.35 61.50 28.35Q60.60 28.35 59.68 29Q58.75 29.65 58.05 30.80L55.10 44.80Q55.50 45.95 57 45.95ZM79.25 50.30Q75.55 50.30 73.50 48.38Q71.45 46.45 71.45 42.35Q71.45 38.90 72.80 34.75Q74.15 30.60 77.20 27.57Q80.25 24.55 84.95 24.55Q90.45 24.55 90.45 29.35Q90.45 32.15 88.85 34.50Q87.25 36.85 84.60 38.27Q81.95 39.70 78.95 39.90Q78.85 41.40 78.85 41.90Q78.85 44.35 79.70 45.23Q80.55 46.10 82.45 46.10Q85.15 46.10 87.08 44.85Q89.00 43.60 91.30 41.05L93.00 41.05Q87.45 50.30 79.25 50.30M79.35 37.50Q81.20 37.40 82.88 36.20Q84.55 35 85.58 33.15Q86.60 31.30 86.60 29.25Q86.60 27.20 85.35 27.20Q83.55 27.20 81.83 30.35Q80.10 33.50 79.35 37.50ZM94.70 25L101.90 25L101.25 28.10Q102.95 26.60 104.33 25.80Q105.70 25 107.30 25Q108.90 25 109.83 26.10Q110.75 27.20 110.75 28.75Q110.75 30.20 109.80 31.30Q108.85 32.40 107.15 32.40Q106.05 32.40 105.68 31.88Q105.30 31.35 105.10 30.35Q104.95 29.70 104.80 29.40Q104.65 29.10 104.25 29.10Q103.20 29.10 102.48 29.52Q101.75 29.95 100.60 31L96.60 50L89.40 50L94.70 25ZM118.45 22.30Q116.80 22.30 115.65 21.15Q114.50 20 114.50 18.35Q114.50 16.70 115.65 15.52Q116.80 14.35 118.45 14.35Q120.10 14.35 121.28 15.52Q122.45 16.70 122.45 18.35Q122.45 20 121.28 21.15Q120.10 22.30 118.45 22.30M115.05 50.30Q112.65 50.30 111.18 48.80Q109.70 47.30 109.70 44.30Q109.70 43.05 110.10 41.05L113.50 25L120.70 25L117.10 42Q116.90 42.75 116.90 43.60Q116.90 44.60 117.38 45.02Q117.85 45.45 118.95 45.45Q120.40 45.45 121.65 44.23Q122.90 43 123.45 41.05L125.55 41.05Q123.70 46.45 120.80 48.38Q117.90 50.30 115.05 50.30ZM130.60 50.30Q126.90 50.30 124.85 48.38Q122.80 46.45 122.80 42.35Q122.80 38.90 124.15 34.75Q125.50 30.60 128.55 27.57Q131.60 24.55 136.30 24.55Q141.80 24.55 141.80 29.35Q141.80 32.15 140.20 34.50Q138.60 36.85 135.95 38.27Q133.30 39.70 130.30 39.90Q130.20 41.40 130.20 41.90Q130.20 44.35 131.05 45.23Q131.90 46.10 133.80 46.10Q136.50 46.10 138.43 44.85Q140.35 43.60 142.65 41.05L144.35 41.05Q138.80 50.30 130.60 50.30M130.70 37.50Q132.55 37.40 134.23 36.20Q135.90 35 136.93 33.15Q137.95 31.30 137.95 29.25Q137.95 27.20 136.70 27.20Q134.90 27.20 133.18 30.35Q131.45 33.50 130.70 37.50ZM160.70 50.30Q157.65 50.30 156.23 48.67Q154.80 47.05 154.80 44.65Q154.80 43.60 155.05 42.27Q155.30 40.95 155.58 39.70Q155.85 38.45 155.95 38.10Q156.35 36.35 156.70 34.65Q157.05 32.95 157.05 31.90Q157.05 29.35 155.25 29.35Q153.95 29.35 152.95 30.63Q151.95 31.90 151.35 33.95L147.95 50L140.75 50L146.05 25L153.25 25L152.70 27.60Q155.20 24.80 158.55 24.80Q161.10 24.80 162.60 26.20Q164.10 27.60 164.10 30.45Q164.10 31.90 163.75 33.67Q163.40 35.45 162.75 38Q162.35 39.55 162.03 41.02Q161.70 42.50 161.70 43.35Q161.70 44.35 162.15 44.90Q162.60 45.45 163.70 45.45Q165.20 45.45 166.10 44.38Q167.00 43.30 167.90 41.05L170.00 41.05Q168.15 46.55 165.73 48.42Q163.30 50.30 160.70 50.30ZM175.05 50.30Q171.35 50.30 169.30 48.38Q167.25 46.45 167.25 42.35Q167.25 38.90 168.63 34.75Q170.00 30.60 173.03 27.57Q176.05 24.55 180.70 24.55Q183.70 24.55 184.98 25.85Q186.25 27.15 186.25 29.15Q186.25 30.90 185.50 31.85Q184.75 32.80 183.60 32.80Q182.75 32.80 181.85 32.20Q182.45 30.55 182.45 29.25Q182.45 28.30 182.10 27.75Q181.75 27.20 181.05 27.20Q179.55 27.20 178.05 29.65Q176.55 32.10 175.60 35.60Q174.65 39.10 174.65 41.90Q174.65 44.35 175.50 45.23Q176.35 46.10 178.25 46.10Q180.95 46.10 182.88 44.85Q184.80 43.60 187.10 41.05L188.80 41.05Q183.25 50.30 175.05 50.30ZM194.25 50.30Q190.55 50.30 188.50 48.38Q186.45 46.45 186.45 42.35Q186.45 38.90 187.80 34.75Q189.15 30.60 192.20 27.57Q195.25 24.55 199.95 24.55Q205.45 24.55 205.45 29.35Q205.45 32.15 203.85 34.50Q202.25 36.85 199.60 38.27Q196.95 39.70 193.95 39.90Q193.85 41.40 193.85 41.90Q193.85 44.35 194.70 45.23Q195.55 46.10 197.45 46.10Q200.15 46.10 202.08 44.85Q204.00 43.60 206.30 41.05L208.00 41.05Q202.45 50.30 194.25 50.30M194.35 37.50Q196.20 37.40 197.88 36.20Q199.55 35 200.58 33.15Q201.60 31.30 201.60 29.25Q201.60 27.20 200.35 27.20Q198.55 27.20 196.83 30.35Q195.10 33.50 194.35 37.50Z"/></g></g></svg>