<svg xmlns="http://www.w3.org/2000/svg" viewBox="0 12.5 214.39999389648438 38.150001525878906" data-asc="1" width="214.39999389648438" height="38.150001525878906"><defs/><g fill="#fff0b3"><g transform="translate(0, 0)"><path d="M12.10 15.85Q8.55 17.20 6.60 20.02Q4.65 22.85 4.65 26.95Q4.65 28.80 5.00 29.52Q5.35 30.25 5.35 30.35Q2.65 30.35 1.32 29.22Q0 28.10 0 25.50Q0 22.30 2.63 19.27Q5.25 16.25 9.35 14.38Q13.45 12.50 17.55 12.50Q18.25 12.50 19.55 12.60L20 43.35L30.50 12.75L36.85 12.75L37.30 43.35L47.80 12.75L51.30 12.75L37.40 50L30.20 50L29.60 24.55L20.10 50L12.90 50L12.10 15.85ZM65.85 50.30Q62.80 50.30 61.38 48.67Q59.95 47.05 59.95 44.65Q59.95 43.60 60.20 42.27Q60.45 40.95 60.73 39.70Q61.00 38.45 61.10 38.10Q61.50 36.35 61.85 34.65Q62.20 32.95 62.20 31.90Q62.20 29.35 60.40 29.35Q59.10 29.35 58.10 30.63Q57.10 31.90 56.50 33.95L53.10 50L45.90 50L53.15 16L60.55 15L57.85 27.60Q60.35 24.80 63.70 24.80Q66.25 24.80 67.75 26.20Q69.25 27.60 69.25 30.45Q69.25 31.90 68.90 33.67Q68.55 35.45 67.90 38Q67.50 39.55 67.18 41.02Q66.85 42.50 66.85 43.35Q66.85 44.35 67.30 44.90Q67.75 45.45 68.85 45.45Q70.35 45.45 71.25 44.38Q72.15 43.30 73.05 41.05L75.15 41.05Q73.30 46.55 70.88 48.42Q68.45 50.30 65.85 50.30ZM79.05 50.30Q76.20 50.30 74.30 48.35Q72.40 46.40 72.40 42.25Q72.40 38.55 73.88 34.48Q75.35 30.40 78.28 27.57Q81.20 24.75 85.25 24.75Q87.30 24.75 88.30 25.45Q89.30 26.15 89.30 27.30L89.30 27.65L89.85 25L97.05 25L93.45 42Q93.25 42.75 93.25 43.60Q93.25 45.75 95.30 45.75Q96.70 45.75 97.73 44.45Q98.75 43.15 99.35 41.05L101.45 41.05Q99.60 46.45 96.88 48.38Q94.15 50.30 91.40 50.30Q89.30 50.30 88.03 49.13Q86.75 47.95 86.50 45.70Q85.05 47.75 83.28 49.02Q81.50 50.30 79.05 50.30M82.30 45.45Q83.55 45.45 84.78 44.27Q86.00 43.10 86.45 41.05L88.85 29.75Q88.85 29.10 88.35 28.47Q87.85 27.85 86.80 27.85Q84.80 27.85 83.20 30.17Q81.60 32.50 80.70 35.77Q79.80 39.05 79.80 41.55Q79.80 44.05 80.53 44.75Q81.25 45.45 82.30 45.45ZM104.30 50.30Q101.90 50.30 100.43 48.80Q98.95 47.30 98.95 44.30Q98.95 43.05 99.35 41.05L102.35 27L100.70 27L101.10 25L102.75 25L104.25 18.10L111.65 17.10L109.95 25L112.95 25L112.55 27L109.55 27L106.35 42Q106.15 42.75 106.15 43.60Q106.15 44.60 106.63 45.02Q107.10 45.45 108.20 45.45Q109.65 45.45 110.90 44.23Q112.15 43 112.70 41.05L114.80 41.05Q112.95 46.45 110.05 48.38Q107.15 50.30 104.30 50.30ZM135.50 16.05Q132.15 17.40 130.33 20.17Q128.50 22.95 128.50 26.95Q128.50 28.80 128.85 29.52Q129.20 30.25 129.20 30.35Q126.50 30.35 125.18 29.22Q123.85 28.10 123.85 25.50Q123.85 22.30 126.48 19.27Q129.10 16.25 133.20 14.38Q137.30 12.50 141.40 12.50Q142.10 12.50 143.40 12.60L135.45 50L128.25 50L135.50 16.05ZM171.55 50.65Q168.55 50.65 165.45 48L165.05 50L157.85 50L164.65 18.20L172.05 17.20L166.05 45.25Q167.45 46.25 168.90 46.25Q171.75 46.25 173.93 42.95Q176.10 39.65 177.30 34.55Q178.50 29.45 178.50 24.25Q178.50 19.35 176.58 17.07Q174.65 14.80 171.20 14.80Q167.45 14.80 164.47 16.27Q161.50 17.75 159.80 20.50Q158.10 23.25 158.10 26.95Q158.10 28.80 158.45 29.52Q158.80 30.25 158.80 30.35Q156.20 30.35 154.83 29.25Q153.45 28.15 153.45 25.70Q153.45 22.30 156 19.25Q158.55 16.20 162.83 14.35Q167.10 12.50 172.05 12.50Q178.90 12.50 182.15 16.55Q185.40 20.60 185.40 26.90Q185.40 32.60 183.48 38.13Q181.55 43.65 178.35 47.15Q175.15 50.65 171.55 50.65ZM193.60 50.20Q189.90 50.20 187.75 48.30Q185.60 46.40 185.60 42.30Q185.60 38.90 187 34.75Q188.40 30.60 191.50 27.57Q194.60 24.55 199.30 24.55Q205.70 24.55 205.70 32.55L205.70 32.60Q205.85 32.65 206.25 32.65Q207.90 32.65 210.05 31.77Q212.20 30.90 213.95 29.65L214.40 31Q212.95 32.55 210.63 33.63Q208.30 34.70 205.55 35.15Q205.15 39.70 203.50 43.10Q201.85 46.50 199.25 48.35Q196.65 50.20 193.60 50.20M195.60 45.70Q196.80 45.70 198 44.33Q199.20 42.95 200.10 40.58Q201 38.20 201.40 35.30Q200.05 35 200.05 33.20Q200.05 31.15 201.60 30.50Q201.50 28.85 201.10 28.22Q200.70 27.60 199.70 27.60Q198.05 27.60 196.50 30Q194.95 32.40 194 35.75Q193.05 39.10 193.05 41.65Q193.05 44.05 193.60 44.88Q194.15 45.70 195.60 45.70Z"/></g></g></svg>