<svg xmlns="http://www.w3.org/2000/svg" viewBox="0 17.100000381469727 33.150001525878906 35.400001525878906" data-asc="1.05" width="33.150001525878906" height="35.400001525878906"><defs/><g fill="#000000"><g transform="translate(0, 0)"><path d="M14.75 17.10Q20.30 17.10 24.48 19.35Q28.65 21.60 30.90 25.60Q33.15 29.60 33.15 34.70Q33.15 39.75 30.90 43.80Q28.65 47.85 24.48 50.17Q20.30 52.50 14.75 52.50L0 52.50L0 17.10L14.75 17.10M13.75 42.60Q17.50 42.60 19.70 40.55Q21.90 38.50 21.90 34.70Q21.90 30.90 19.70 28.85Q17.50 26.80 13.75 26.80L11.10 26.80L11.10 42.60L13.75 42.60Z"/></g></g></svg>