<svg xmlns="http://www.w3.org/2000/svg" viewBox="0 0 50 50" width="50" height="50">
  <g fill="#000000">
    <path d="M27.25 48.80L8.30 48.80L8.30 48.30L8.95 48.30Q10.25 48.30 11.18 47.38Q12.10 46.45 12.15 45.15L12.15 16.60Q6.90 17.15 4.20 19.55Q1.90 21.60 0.50 24.80L0 24.60Q1 19.20 5.17 16.50Q9.35 13.80 15.65 13.80L27.25 13.80Q36.65 13.80 41.93 18.42Q47.20 23.05 47.20 31.30Q47.20 39.55 41.90 44.17Q36.60 48.80 27.25 48.80M22.40 46.30L26.25 46.30Q26.25 46.30 26.25 46.30Q30.90 46.30 33.55 42.32Q36.20 38.35 36.20 31.30Q36.20 24.25 33.55 20.27Q30.90 16.30 26.25 16.30L22.40 16.40L22.40 46.30Z"/>
  </g>
</svg>
